M48
; DRILL file {KiCad (5.1.6)-1} date 09/13/20 20:14:15
; FORMAT={-:-/ absolute / inch / decimal}
; #@! TF.CreationDate,2020-09-13T20:14:15-05:00
; #@! TF.GenerationSoftware,Kicad,Pcbnew,(5.1.6)-1
; #@! TF.FileFunction,Plated,1,2,PTH
FMAT,2
INCH
T1C0.0236
T2C0.0315
T3C0.0394
T4C0.0433
%
G90
G05
T1
X8.85Y-4.35
X8.9287Y-4.35
X8.85Y-4.05
X8.9287Y-4.05
T2
X8.35Y-4.3
X8.65Y-4.3
X8.4Y-4.5
X8.5969Y-4.5
X8.75Y-3.85
X9.05Y-3.85
X8.35Y-3.65
X8.35Y-3.75
X8.35Y-3.85
X8.35Y-3.95
X8.65Y-3.65
X8.65Y-3.75
X8.65Y-3.85
X8.65Y-3.95
X8.35Y-4.15
X8.65Y-4.15
X8.15Y-4.1
X8.15Y-4.4
X8.15Y-3.65
X8.15Y-3.95
T3
X7.85Y-3.8
X7.85Y-3.9
X8.05Y-4.65
X8.15Y-4.65
X8.85Y-4.65
X8.95Y-4.65
X8.4Y-4.65
X8.5Y-4.65
X8.6Y-4.65
T4
X7.85Y-4.2
X7.85Y-4.3
X7.85Y-4.4
T0
M30
