%TF.GenerationSoftware,KiCad,Pcbnew,(5.1.6)-1*%
%TF.CreationDate,2020-09-13T20:14:07-05:00*%
%TF.ProjectId,CircuitBoard,43697263-7569-4744-926f-6172642e6b69,rev?*%
%TF.SameCoordinates,Original*%
%TF.FileFunction,Legend,Top*%
%TF.FilePolarity,Positive*%
%FSLAX46Y46*%
G04 Gerber Fmt 4.6, Leading zero omitted, Abs format (unit mm)*
G04 Created by KiCad (PCBNEW (5.1.6)-1) date 2020-09-13 20:14:07*
%MOMM*%
%LPD*%
G01*
G04 APERTURE LIST*
%ADD10C,0.150000*%
%ADD11C,0.120000*%
G04 APERTURE END LIST*
D10*
X201690476Y-89452380D02*
X201928571Y-90452380D01*
X202119047Y-89738095D01*
X202309523Y-90452380D01*
X202547619Y-89452380D01*
X202928571Y-90452380D02*
X202928571Y-89452380D01*
X203357142Y-90452380D02*
X203357142Y-89928571D01*
X203309523Y-89833333D01*
X203214285Y-89785714D01*
X203071428Y-89785714D01*
X202976190Y-89833333D01*
X202928571Y-89880952D01*
X204261904Y-90452380D02*
X204261904Y-89928571D01*
X204214285Y-89833333D01*
X204119047Y-89785714D01*
X203928571Y-89785714D01*
X203833333Y-89833333D01*
X204261904Y-90404761D02*
X204166666Y-90452380D01*
X203928571Y-90452380D01*
X203833333Y-90404761D01*
X203785714Y-90309523D01*
X203785714Y-90214285D01*
X203833333Y-90119047D01*
X203928571Y-90071428D01*
X204166666Y-90071428D01*
X204261904Y-90023809D01*
X204595238Y-89785714D02*
X204976190Y-89785714D01*
X204738095Y-89452380D02*
X204738095Y-90309523D01*
X204785714Y-90404761D01*
X204880952Y-90452380D01*
X204976190Y-90452380D01*
X206500000Y-89785714D02*
X206500000Y-90595238D01*
X206452380Y-90690476D01*
X206404761Y-90738095D01*
X206309523Y-90785714D01*
X206166666Y-90785714D01*
X206071428Y-90738095D01*
X206500000Y-90404761D02*
X206404761Y-90452380D01*
X206214285Y-90452380D01*
X206119047Y-90404761D01*
X206071428Y-90357142D01*
X206023809Y-90261904D01*
X206023809Y-89976190D01*
X206071428Y-89880952D01*
X206119047Y-89833333D01*
X206214285Y-89785714D01*
X206404761Y-89785714D01*
X206500000Y-89833333D01*
X207119047Y-90452380D02*
X207023809Y-90404761D01*
X206976190Y-90357142D01*
X206928571Y-90261904D01*
X206928571Y-89976190D01*
X206976190Y-89880952D01*
X207023809Y-89833333D01*
X207119047Y-89785714D01*
X207261904Y-89785714D01*
X207357142Y-89833333D01*
X207404761Y-89880952D01*
X207452380Y-89976190D01*
X207452380Y-90261904D01*
X207404761Y-90357142D01*
X207357142Y-90404761D01*
X207261904Y-90452380D01*
X207119047Y-90452380D01*
X208261904Y-90404761D02*
X208166666Y-90452380D01*
X207976190Y-90452380D01*
X207880952Y-90404761D01*
X207833333Y-90309523D01*
X207833333Y-89928571D01*
X207880952Y-89833333D01*
X207976190Y-89785714D01*
X208166666Y-89785714D01*
X208261904Y-89833333D01*
X208309523Y-89928571D01*
X208309523Y-90023809D01*
X207833333Y-90119047D01*
X208690476Y-90404761D02*
X208785714Y-90452380D01*
X208976190Y-90452380D01*
X209071428Y-90404761D01*
X209119047Y-90309523D01*
X209119047Y-90261904D01*
X209071428Y-90166666D01*
X208976190Y-90119047D01*
X208833333Y-90119047D01*
X208738095Y-90071428D01*
X208690476Y-89976190D01*
X208690476Y-89928571D01*
X208738095Y-89833333D01*
X208833333Y-89785714D01*
X208976190Y-89785714D01*
X209071428Y-89833333D01*
X210738095Y-89785714D02*
X210738095Y-90452380D01*
X210309523Y-89785714D02*
X210309523Y-90309523D01*
X210357142Y-90404761D01*
X210452380Y-90452380D01*
X210595238Y-90452380D01*
X210690476Y-90404761D01*
X210738095Y-90357142D01*
X211214285Y-89785714D02*
X211214285Y-90785714D01*
X211214285Y-89833333D02*
X211309523Y-89785714D01*
X211500000Y-89785714D01*
X211595238Y-89833333D01*
X211642857Y-89880952D01*
X211690476Y-89976190D01*
X211690476Y-90261904D01*
X211642857Y-90357142D01*
X211595238Y-90404761D01*
X211500000Y-90452380D01*
X211309523Y-90452380D01*
X211214285Y-90404761D01*
X212166666Y-90404761D02*
X212166666Y-90452380D01*
X212119047Y-90547619D01*
X212071428Y-90595238D01*
X213357142Y-90452380D02*
X213357142Y-89785714D01*
X213357142Y-89880952D02*
X213404761Y-89833333D01*
X213500000Y-89785714D01*
X213642857Y-89785714D01*
X213738095Y-89833333D01*
X213785714Y-89928571D01*
X213785714Y-90452380D01*
X213785714Y-89928571D02*
X213833333Y-89833333D01*
X213928571Y-89785714D01*
X214071428Y-89785714D01*
X214166666Y-89833333D01*
X214214285Y-89928571D01*
X214214285Y-90452380D01*
X215119047Y-89785714D02*
X215119047Y-90452380D01*
X214690476Y-89785714D02*
X214690476Y-90309523D01*
X214738095Y-90404761D01*
X214833333Y-90452380D01*
X214976190Y-90452380D01*
X215071428Y-90404761D01*
X215119047Y-90357142D01*
X215547619Y-90404761D02*
X215642857Y-90452380D01*
X215833333Y-90452380D01*
X215928571Y-90404761D01*
X215976190Y-90309523D01*
X215976190Y-90261904D01*
X215928571Y-90166666D01*
X215833333Y-90119047D01*
X215690476Y-90119047D01*
X215595238Y-90071428D01*
X215547619Y-89976190D01*
X215547619Y-89928571D01*
X215595238Y-89833333D01*
X215690476Y-89785714D01*
X215833333Y-89785714D01*
X215928571Y-89833333D01*
X216261904Y-89785714D02*
X216642857Y-89785714D01*
X216404761Y-89452380D02*
X216404761Y-90309523D01*
X216452380Y-90404761D01*
X216547619Y-90452380D01*
X216642857Y-90452380D01*
X218166666Y-90404761D02*
X218071428Y-90452380D01*
X217880952Y-90452380D01*
X217785714Y-90404761D01*
X217738095Y-90357142D01*
X217690476Y-90261904D01*
X217690476Y-89976190D01*
X217738095Y-89880952D01*
X217785714Y-89833333D01*
X217880952Y-89785714D01*
X218071428Y-89785714D01*
X218166666Y-89833333D01*
X218738095Y-90452380D02*
X218642857Y-90404761D01*
X218595238Y-90357142D01*
X218547619Y-90261904D01*
X218547619Y-89976190D01*
X218595238Y-89880952D01*
X218642857Y-89833333D01*
X218738095Y-89785714D01*
X218880952Y-89785714D01*
X218976190Y-89833333D01*
X219023809Y-89880952D01*
X219071428Y-89976190D01*
X219071428Y-90261904D01*
X219023809Y-90357142D01*
X218976190Y-90404761D01*
X218880952Y-90452380D01*
X218738095Y-90452380D01*
X219500000Y-90452380D02*
X219500000Y-89785714D01*
X219500000Y-89880952D02*
X219547619Y-89833333D01*
X219642857Y-89785714D01*
X219785714Y-89785714D01*
X219880952Y-89833333D01*
X219928571Y-89928571D01*
X219928571Y-90452380D01*
X219928571Y-89928571D02*
X219976190Y-89833333D01*
X220071428Y-89785714D01*
X220214285Y-89785714D01*
X220309523Y-89833333D01*
X220357142Y-89928571D01*
X220357142Y-90452380D01*
X221214285Y-90404761D02*
X221119047Y-90452380D01*
X220928571Y-90452380D01*
X220833333Y-90404761D01*
X220785714Y-90309523D01*
X220785714Y-89928571D01*
X220833333Y-89833333D01*
X220928571Y-89785714D01*
X221119047Y-89785714D01*
X221214285Y-89833333D01*
X221261904Y-89928571D01*
X221261904Y-90023809D01*
X220785714Y-90119047D01*
X222880952Y-90452380D02*
X222880952Y-89452380D01*
X222880952Y-90404761D02*
X222785714Y-90452380D01*
X222595238Y-90452380D01*
X222500000Y-90404761D01*
X222452380Y-90357142D01*
X222404761Y-90261904D01*
X222404761Y-89976190D01*
X222452380Y-89880952D01*
X222500000Y-89833333D01*
X222595238Y-89785714D01*
X222785714Y-89785714D01*
X222880952Y-89833333D01*
X223500000Y-90452380D02*
X223404761Y-90404761D01*
X223357142Y-90357142D01*
X223309523Y-90261904D01*
X223309523Y-89976190D01*
X223357142Y-89880952D01*
X223404761Y-89833333D01*
X223500000Y-89785714D01*
X223642857Y-89785714D01*
X223738095Y-89833333D01*
X223785714Y-89880952D01*
X223833333Y-89976190D01*
X223833333Y-90261904D01*
X223785714Y-90357142D01*
X223738095Y-90404761D01*
X223642857Y-90452380D01*
X223500000Y-90452380D01*
X224166666Y-89785714D02*
X224357142Y-90452380D01*
X224547619Y-89976190D01*
X224738095Y-90452380D01*
X224928571Y-89785714D01*
X225309523Y-89785714D02*
X225309523Y-90452380D01*
X225309523Y-89880952D02*
X225357142Y-89833333D01*
X225452380Y-89785714D01*
X225595238Y-89785714D01*
X225690476Y-89833333D01*
X225738095Y-89928571D01*
X225738095Y-90452380D01*
X226214285Y-90357142D02*
X226261904Y-90404761D01*
X226214285Y-90452380D01*
X226166666Y-90404761D01*
X226214285Y-90357142D01*
X226214285Y-90452380D01*
X217666666Y-121452380D02*
X217857142Y-121452380D01*
X217952380Y-121404761D01*
X218000000Y-121357142D01*
X218095238Y-121214285D01*
X218142857Y-121023809D01*
X218142857Y-120642857D01*
X218095238Y-120547619D01*
X218047619Y-120500000D01*
X217952380Y-120452380D01*
X217761904Y-120452380D01*
X217666666Y-120500000D01*
X217619047Y-120547619D01*
X217571428Y-120642857D01*
X217571428Y-120880952D01*
X217619047Y-120976190D01*
X217666666Y-121023809D01*
X217761904Y-121071428D01*
X217952380Y-121071428D01*
X218047619Y-121023809D01*
X218095238Y-120976190D01*
X218142857Y-120880952D01*
X218571428Y-121071428D02*
X219333333Y-121071428D01*
X220333333Y-121452380D02*
X219761904Y-121452380D01*
X220047619Y-121452380D02*
X220047619Y-120452380D01*
X219952380Y-120595238D01*
X219857142Y-120690476D01*
X219761904Y-120738095D01*
X220714285Y-120547619D02*
X220761904Y-120500000D01*
X220857142Y-120452380D01*
X221095238Y-120452380D01*
X221190476Y-120500000D01*
X221238095Y-120547619D01*
X221285714Y-120642857D01*
X221285714Y-120738095D01*
X221238095Y-120880952D01*
X220666666Y-121452380D01*
X221285714Y-121452380D01*
X221714285Y-121071428D02*
X222476190Y-121071428D01*
X222904761Y-120547619D02*
X222952380Y-120500000D01*
X223047619Y-120452380D01*
X223285714Y-120452380D01*
X223380952Y-120500000D01*
X223428571Y-120547619D01*
X223476190Y-120642857D01*
X223476190Y-120738095D01*
X223428571Y-120880952D01*
X222857142Y-121452380D01*
X223476190Y-121452380D01*
X224095238Y-120452380D02*
X224190476Y-120452380D01*
X224285714Y-120500000D01*
X224333333Y-120547619D01*
X224380952Y-120642857D01*
X224428571Y-120833333D01*
X224428571Y-121071428D01*
X224380952Y-121261904D01*
X224333333Y-121357142D01*
X224285714Y-121404761D01*
X224190476Y-121452380D01*
X224095238Y-121452380D01*
X224000000Y-121404761D01*
X223952380Y-121357142D01*
X223904761Y-121261904D01*
X223857142Y-121071428D01*
X223857142Y-120833333D01*
X223904761Y-120642857D01*
X223952380Y-120547619D01*
X224000000Y-120500000D01*
X224095238Y-120452380D01*
X203000000Y-120452380D02*
X203190476Y-120452380D01*
X203285714Y-120500000D01*
X203380952Y-120595238D01*
X203428571Y-120785714D01*
X203428571Y-121119047D01*
X203380952Y-121309523D01*
X203285714Y-121404761D01*
X203190476Y-121452380D01*
X203000000Y-121452380D01*
X202904761Y-121404761D01*
X202809523Y-121309523D01*
X202761904Y-121119047D01*
X202761904Y-120785714D01*
X202809523Y-120595238D01*
X202904761Y-120500000D01*
X203000000Y-120452380D01*
X203857142Y-120785714D02*
X203857142Y-121785714D01*
X203857142Y-120833333D02*
X203952380Y-120785714D01*
X204142857Y-120785714D01*
X204238095Y-120833333D01*
X204285714Y-120880952D01*
X204333333Y-120976190D01*
X204333333Y-121261904D01*
X204285714Y-121357142D01*
X204238095Y-121404761D01*
X204142857Y-121452380D01*
X203952380Y-121452380D01*
X203857142Y-121404761D01*
X205142857Y-121404761D02*
X205047619Y-121452380D01*
X204857142Y-121452380D01*
X204761904Y-121404761D01*
X204714285Y-121309523D01*
X204714285Y-120928571D01*
X204761904Y-120833333D01*
X204857142Y-120785714D01*
X205047619Y-120785714D01*
X205142857Y-120833333D01*
X205190476Y-120928571D01*
X205190476Y-121023809D01*
X204714285Y-121119047D01*
X205619047Y-120785714D02*
X205619047Y-121452380D01*
X205619047Y-120880952D02*
X205666666Y-120833333D01*
X205761904Y-120785714D01*
X205904761Y-120785714D01*
X206000000Y-120833333D01*
X206047619Y-120928571D01*
X206047619Y-121452380D01*
X207095238Y-121357142D02*
X207047619Y-121404761D01*
X206904761Y-121452380D01*
X206809523Y-121452380D01*
X206666666Y-121404761D01*
X206571428Y-121309523D01*
X206523809Y-121214285D01*
X206476190Y-121023809D01*
X206476190Y-120880952D01*
X206523809Y-120690476D01*
X206571428Y-120595238D01*
X206666666Y-120500000D01*
X206809523Y-120452380D01*
X206904761Y-120452380D01*
X207047619Y-120500000D01*
X207095238Y-120547619D01*
X207666666Y-121452380D02*
X207571428Y-121404761D01*
X207523809Y-121309523D01*
X207523809Y-120452380D01*
X208047619Y-121452380D02*
X208047619Y-120785714D01*
X208047619Y-120452380D02*
X208000000Y-120500000D01*
X208047619Y-120547619D01*
X208095238Y-120500000D01*
X208047619Y-120452380D01*
X208047619Y-120547619D01*
X208523809Y-120785714D02*
X208523809Y-121452380D01*
X208523809Y-120880952D02*
X208571428Y-120833333D01*
X208666666Y-120785714D01*
X208809523Y-120785714D01*
X208904761Y-120833333D01*
X208952380Y-120928571D01*
X208952380Y-121452380D01*
X209571428Y-121452380D02*
X209476190Y-121404761D01*
X209428571Y-121357142D01*
X209380952Y-121261904D01*
X209380952Y-120976190D01*
X209428571Y-120880952D01*
X209476190Y-120833333D01*
X209571428Y-120785714D01*
X209714285Y-120785714D01*
X209809523Y-120833333D01*
X209857142Y-120880952D01*
X209904761Y-120976190D01*
X209904761Y-121261904D01*
X209857142Y-121357142D01*
X209809523Y-121404761D01*
X209714285Y-121452380D01*
X209571428Y-121452380D01*
X210285714Y-121404761D02*
X210380952Y-121452380D01*
X210571428Y-121452380D01*
X210666666Y-121404761D01*
X210714285Y-121309523D01*
X210714285Y-121261904D01*
X210666666Y-121166666D01*
X210571428Y-121119047D01*
X210428571Y-121119047D01*
X210333333Y-121071428D01*
X210285714Y-120976190D01*
X210285714Y-120928571D01*
X210333333Y-120833333D01*
X210428571Y-120785714D01*
X210571428Y-120785714D01*
X210666666Y-120833333D01*
X211000000Y-120785714D02*
X211380952Y-120785714D01*
X211142857Y-120452380D02*
X211142857Y-121309523D01*
X211190476Y-121404761D01*
X211285714Y-121452380D01*
X211380952Y-121452380D01*
X212142857Y-121452380D02*
X212142857Y-120928571D01*
X212095238Y-120833333D01*
X212000000Y-120785714D01*
X211809523Y-120785714D01*
X211714285Y-120833333D01*
X212142857Y-121404761D02*
X212047619Y-121452380D01*
X211809523Y-121452380D01*
X211714285Y-121404761D01*
X211666666Y-121309523D01*
X211666666Y-121214285D01*
X211714285Y-121119047D01*
X211809523Y-121071428D01*
X212047619Y-121071428D01*
X212142857Y-121023809D01*
X212476190Y-120785714D02*
X212857142Y-120785714D01*
X212619047Y-120452380D02*
X212619047Y-121309523D01*
X212666666Y-121404761D01*
X212761904Y-121452380D01*
X212857142Y-121452380D01*
X213857142Y-120785714D02*
X214095238Y-121452380D01*
X214333333Y-120785714D01*
X215238095Y-121452380D02*
X214666666Y-121452380D01*
X214952380Y-121452380D02*
X214952380Y-120452380D01*
X214857142Y-120595238D01*
X214761904Y-120690476D01*
X214666666Y-120738095D01*
D11*
%TO.C,C1*%
X218980000Y-115225000D02*
X218980000Y-115670000D01*
X218980000Y-112930000D02*
X218980000Y-113375000D01*
X212740000Y-115225000D02*
X212740000Y-115670000D01*
X212740000Y-112930000D02*
X212740000Y-113375000D01*
X212740000Y-115670000D02*
X218980000Y-115670000D01*
X212740000Y-112930000D02*
X218980000Y-112930000D01*
%TO.C,C2*%
X227910000Y-102870000D02*
G75*
G03*
X227910000Y-102870000I-2120000J0D01*
G01*
X225790000Y-100790000D02*
X225790000Y-104950000D01*
X225830000Y-100790000D02*
X225830000Y-104950000D01*
X225870000Y-100791000D02*
X225870000Y-104949000D01*
X225910000Y-100793000D02*
X225910000Y-104947000D01*
X225950000Y-100796000D02*
X225950000Y-104944000D01*
X225990000Y-100799000D02*
X225990000Y-102030000D01*
X225990000Y-103710000D02*
X225990000Y-104941000D01*
X226030000Y-100803000D02*
X226030000Y-102030000D01*
X226030000Y-103710000D02*
X226030000Y-104937000D01*
X226070000Y-100808000D02*
X226070000Y-102030000D01*
X226070000Y-103710000D02*
X226070000Y-104932000D01*
X226110000Y-100814000D02*
X226110000Y-102030000D01*
X226110000Y-103710000D02*
X226110000Y-104926000D01*
X226150000Y-100820000D02*
X226150000Y-102030000D01*
X226150000Y-103710000D02*
X226150000Y-104920000D01*
X226190000Y-100828000D02*
X226190000Y-102030000D01*
X226190000Y-103710000D02*
X226190000Y-104912000D01*
X226230000Y-100836000D02*
X226230000Y-102030000D01*
X226230000Y-103710000D02*
X226230000Y-104904000D01*
X226270000Y-100845000D02*
X226270000Y-102030000D01*
X226270000Y-103710000D02*
X226270000Y-104895000D01*
X226310000Y-100854000D02*
X226310000Y-102030000D01*
X226310000Y-103710000D02*
X226310000Y-104886000D01*
X226350000Y-100865000D02*
X226350000Y-102030000D01*
X226350000Y-103710000D02*
X226350000Y-104875000D01*
X226390000Y-100876000D02*
X226390000Y-102030000D01*
X226390000Y-103710000D02*
X226390000Y-104864000D01*
X226430000Y-100888000D02*
X226430000Y-102030000D01*
X226430000Y-103710000D02*
X226430000Y-104852000D01*
X226470000Y-100902000D02*
X226470000Y-102030000D01*
X226470000Y-103710000D02*
X226470000Y-104838000D01*
X226511000Y-100916000D02*
X226511000Y-102030000D01*
X226511000Y-103710000D02*
X226511000Y-104824000D01*
X226551000Y-100930000D02*
X226551000Y-102030000D01*
X226551000Y-103710000D02*
X226551000Y-104810000D01*
X226591000Y-100946000D02*
X226591000Y-102030000D01*
X226591000Y-103710000D02*
X226591000Y-104794000D01*
X226631000Y-100963000D02*
X226631000Y-102030000D01*
X226631000Y-103710000D02*
X226631000Y-104777000D01*
X226671000Y-100981000D02*
X226671000Y-102030000D01*
X226671000Y-103710000D02*
X226671000Y-104759000D01*
X226711000Y-101000000D02*
X226711000Y-102030000D01*
X226711000Y-103710000D02*
X226711000Y-104740000D01*
X226751000Y-101019000D02*
X226751000Y-102030000D01*
X226751000Y-103710000D02*
X226751000Y-104721000D01*
X226791000Y-101040000D02*
X226791000Y-102030000D01*
X226791000Y-103710000D02*
X226791000Y-104700000D01*
X226831000Y-101062000D02*
X226831000Y-102030000D01*
X226831000Y-103710000D02*
X226831000Y-104678000D01*
X226871000Y-101085000D02*
X226871000Y-102030000D01*
X226871000Y-103710000D02*
X226871000Y-104655000D01*
X226911000Y-101110000D02*
X226911000Y-102030000D01*
X226911000Y-103710000D02*
X226911000Y-104630000D01*
X226951000Y-101135000D02*
X226951000Y-102030000D01*
X226951000Y-103710000D02*
X226951000Y-104605000D01*
X226991000Y-101162000D02*
X226991000Y-102030000D01*
X226991000Y-103710000D02*
X226991000Y-104578000D01*
X227031000Y-101190000D02*
X227031000Y-102030000D01*
X227031000Y-103710000D02*
X227031000Y-104550000D01*
X227071000Y-101220000D02*
X227071000Y-102030000D01*
X227071000Y-103710000D02*
X227071000Y-104520000D01*
X227111000Y-101251000D02*
X227111000Y-102030000D01*
X227111000Y-103710000D02*
X227111000Y-104489000D01*
X227151000Y-101283000D02*
X227151000Y-102030000D01*
X227151000Y-103710000D02*
X227151000Y-104457000D01*
X227191000Y-101318000D02*
X227191000Y-102030000D01*
X227191000Y-103710000D02*
X227191000Y-104422000D01*
X227231000Y-101354000D02*
X227231000Y-102030000D01*
X227231000Y-103710000D02*
X227231000Y-104386000D01*
X227271000Y-101392000D02*
X227271000Y-102030000D01*
X227271000Y-103710000D02*
X227271000Y-104348000D01*
X227311000Y-101432000D02*
X227311000Y-102030000D01*
X227311000Y-103710000D02*
X227311000Y-104308000D01*
X227351000Y-101474000D02*
X227351000Y-102030000D01*
X227351000Y-103710000D02*
X227351000Y-104266000D01*
X227391000Y-101519000D02*
X227391000Y-102030000D01*
X227391000Y-103710000D02*
X227391000Y-104221000D01*
X227431000Y-101566000D02*
X227431000Y-102030000D01*
X227431000Y-103710000D02*
X227431000Y-104174000D01*
X227471000Y-101616000D02*
X227471000Y-102030000D01*
X227471000Y-103710000D02*
X227471000Y-104124000D01*
X227511000Y-101670000D02*
X227511000Y-102030000D01*
X227511000Y-103710000D02*
X227511000Y-104070000D01*
X227551000Y-101728000D02*
X227551000Y-102030000D01*
X227551000Y-103710000D02*
X227551000Y-104012000D01*
X227591000Y-101790000D02*
X227591000Y-102030000D01*
X227591000Y-103710000D02*
X227591000Y-103950000D01*
X227631000Y-101857000D02*
X227631000Y-103883000D01*
X227671000Y-101930000D02*
X227671000Y-103810000D01*
X227711000Y-102011000D02*
X227711000Y-103729000D01*
X227751000Y-102102000D02*
X227751000Y-103638000D01*
X227791000Y-102206000D02*
X227791000Y-103534000D01*
X227831000Y-102333000D02*
X227831000Y-103407000D01*
X227871000Y-102500000D02*
X227871000Y-103240000D01*
X223520199Y-101675000D02*
X223920199Y-101675000D01*
X223720199Y-101475000D02*
X223720199Y-101875000D01*
%TO.C,C3*%
X223720199Y-109095000D02*
X223720199Y-109495000D01*
X223520199Y-109295000D02*
X223920199Y-109295000D01*
X227871000Y-110120000D02*
X227871000Y-110860000D01*
X227831000Y-109953000D02*
X227831000Y-111027000D01*
X227791000Y-109826000D02*
X227791000Y-111154000D01*
X227751000Y-109722000D02*
X227751000Y-111258000D01*
X227711000Y-109631000D02*
X227711000Y-111349000D01*
X227671000Y-109550000D02*
X227671000Y-111430000D01*
X227631000Y-109477000D02*
X227631000Y-111503000D01*
X227591000Y-111330000D02*
X227591000Y-111570000D01*
X227591000Y-109410000D02*
X227591000Y-109650000D01*
X227551000Y-111330000D02*
X227551000Y-111632000D01*
X227551000Y-109348000D02*
X227551000Y-109650000D01*
X227511000Y-111330000D02*
X227511000Y-111690000D01*
X227511000Y-109290000D02*
X227511000Y-109650000D01*
X227471000Y-111330000D02*
X227471000Y-111744000D01*
X227471000Y-109236000D02*
X227471000Y-109650000D01*
X227431000Y-111330000D02*
X227431000Y-111794000D01*
X227431000Y-109186000D02*
X227431000Y-109650000D01*
X227391000Y-111330000D02*
X227391000Y-111841000D01*
X227391000Y-109139000D02*
X227391000Y-109650000D01*
X227351000Y-111330000D02*
X227351000Y-111886000D01*
X227351000Y-109094000D02*
X227351000Y-109650000D01*
X227311000Y-111330000D02*
X227311000Y-111928000D01*
X227311000Y-109052000D02*
X227311000Y-109650000D01*
X227271000Y-111330000D02*
X227271000Y-111968000D01*
X227271000Y-109012000D02*
X227271000Y-109650000D01*
X227231000Y-111330000D02*
X227231000Y-112006000D01*
X227231000Y-108974000D02*
X227231000Y-109650000D01*
X227191000Y-111330000D02*
X227191000Y-112042000D01*
X227191000Y-108938000D02*
X227191000Y-109650000D01*
X227151000Y-111330000D02*
X227151000Y-112077000D01*
X227151000Y-108903000D02*
X227151000Y-109650000D01*
X227111000Y-111330000D02*
X227111000Y-112109000D01*
X227111000Y-108871000D02*
X227111000Y-109650000D01*
X227071000Y-111330000D02*
X227071000Y-112140000D01*
X227071000Y-108840000D02*
X227071000Y-109650000D01*
X227031000Y-111330000D02*
X227031000Y-112170000D01*
X227031000Y-108810000D02*
X227031000Y-109650000D01*
X226991000Y-111330000D02*
X226991000Y-112198000D01*
X226991000Y-108782000D02*
X226991000Y-109650000D01*
X226951000Y-111330000D02*
X226951000Y-112225000D01*
X226951000Y-108755000D02*
X226951000Y-109650000D01*
X226911000Y-111330000D02*
X226911000Y-112250000D01*
X226911000Y-108730000D02*
X226911000Y-109650000D01*
X226871000Y-111330000D02*
X226871000Y-112275000D01*
X226871000Y-108705000D02*
X226871000Y-109650000D01*
X226831000Y-111330000D02*
X226831000Y-112298000D01*
X226831000Y-108682000D02*
X226831000Y-109650000D01*
X226791000Y-111330000D02*
X226791000Y-112320000D01*
X226791000Y-108660000D02*
X226791000Y-109650000D01*
X226751000Y-111330000D02*
X226751000Y-112341000D01*
X226751000Y-108639000D02*
X226751000Y-109650000D01*
X226711000Y-111330000D02*
X226711000Y-112360000D01*
X226711000Y-108620000D02*
X226711000Y-109650000D01*
X226671000Y-111330000D02*
X226671000Y-112379000D01*
X226671000Y-108601000D02*
X226671000Y-109650000D01*
X226631000Y-111330000D02*
X226631000Y-112397000D01*
X226631000Y-108583000D02*
X226631000Y-109650000D01*
X226591000Y-111330000D02*
X226591000Y-112414000D01*
X226591000Y-108566000D02*
X226591000Y-109650000D01*
X226551000Y-111330000D02*
X226551000Y-112430000D01*
X226551000Y-108550000D02*
X226551000Y-109650000D01*
X226511000Y-111330000D02*
X226511000Y-112444000D01*
X226511000Y-108536000D02*
X226511000Y-109650000D01*
X226470000Y-111330000D02*
X226470000Y-112458000D01*
X226470000Y-108522000D02*
X226470000Y-109650000D01*
X226430000Y-111330000D02*
X226430000Y-112472000D01*
X226430000Y-108508000D02*
X226430000Y-109650000D01*
X226390000Y-111330000D02*
X226390000Y-112484000D01*
X226390000Y-108496000D02*
X226390000Y-109650000D01*
X226350000Y-111330000D02*
X226350000Y-112495000D01*
X226350000Y-108485000D02*
X226350000Y-109650000D01*
X226310000Y-111330000D02*
X226310000Y-112506000D01*
X226310000Y-108474000D02*
X226310000Y-109650000D01*
X226270000Y-111330000D02*
X226270000Y-112515000D01*
X226270000Y-108465000D02*
X226270000Y-109650000D01*
X226230000Y-111330000D02*
X226230000Y-112524000D01*
X226230000Y-108456000D02*
X226230000Y-109650000D01*
X226190000Y-111330000D02*
X226190000Y-112532000D01*
X226190000Y-108448000D02*
X226190000Y-109650000D01*
X226150000Y-111330000D02*
X226150000Y-112540000D01*
X226150000Y-108440000D02*
X226150000Y-109650000D01*
X226110000Y-111330000D02*
X226110000Y-112546000D01*
X226110000Y-108434000D02*
X226110000Y-109650000D01*
X226070000Y-111330000D02*
X226070000Y-112552000D01*
X226070000Y-108428000D02*
X226070000Y-109650000D01*
X226030000Y-111330000D02*
X226030000Y-112557000D01*
X226030000Y-108423000D02*
X226030000Y-109650000D01*
X225990000Y-111330000D02*
X225990000Y-112561000D01*
X225990000Y-108419000D02*
X225990000Y-109650000D01*
X225950000Y-108416000D02*
X225950000Y-112564000D01*
X225910000Y-108413000D02*
X225910000Y-112567000D01*
X225870000Y-108411000D02*
X225870000Y-112569000D01*
X225830000Y-108410000D02*
X225830000Y-112570000D01*
X225790000Y-108410000D02*
X225790000Y-112570000D01*
X227910000Y-110490000D02*
G75*
G03*
X227910000Y-110490000I-2120000J0D01*
G01*
%TO.C,D1*%
X205890000Y-98040000D02*
X208130000Y-98040000D01*
X205890000Y-97800000D02*
X208130000Y-97800000D01*
X205890000Y-97920000D02*
X208130000Y-97920000D01*
X207010000Y-93750000D02*
X207010000Y-94400000D01*
X207010000Y-99290000D02*
X207010000Y-98640000D01*
X205890000Y-94400000D02*
X205890000Y-98640000D01*
X208130000Y-94400000D02*
X205890000Y-94400000D01*
X208130000Y-98640000D02*
X208130000Y-94400000D01*
X205890000Y-98640000D02*
X208130000Y-98640000D01*
%TO.C,D2*%
X214380000Y-104290000D02*
X214380000Y-106530000D01*
X214620000Y-104290000D02*
X214620000Y-106530000D01*
X214500000Y-104290000D02*
X214500000Y-106530000D01*
X218670000Y-105410000D02*
X218020000Y-105410000D01*
X213130000Y-105410000D02*
X213780000Y-105410000D01*
X218020000Y-104290000D02*
X213780000Y-104290000D01*
X218020000Y-106530000D02*
X218020000Y-104290000D01*
X213780000Y-106530000D02*
X218020000Y-106530000D01*
X213780000Y-104290000D02*
X213780000Y-106530000D01*
%TO.C,D3*%
X218020000Y-110340000D02*
X218020000Y-108100000D01*
X218020000Y-108100000D02*
X213780000Y-108100000D01*
X213780000Y-108100000D02*
X213780000Y-110340000D01*
X213780000Y-110340000D02*
X218020000Y-110340000D01*
X218670000Y-109220000D02*
X218020000Y-109220000D01*
X213130000Y-109220000D02*
X213780000Y-109220000D01*
X217300000Y-110340000D02*
X217300000Y-108100000D01*
X217180000Y-110340000D02*
X217180000Y-108100000D01*
X217420000Y-110340000D02*
X217420000Y-108100000D01*
%TO.C,J1*%
X198060000Y-95190000D02*
X199390000Y-95190000D01*
X198060000Y-96520000D02*
X198060000Y-95190000D01*
X198060000Y-97790000D02*
X200720000Y-97790000D01*
X200720000Y-97790000D02*
X200720000Y-100390000D01*
X198060000Y-97790000D02*
X198060000Y-100390000D01*
X198060000Y-100390000D02*
X200720000Y-100390000D01*
%TO.C,J2*%
X223460000Y-119440000D02*
X223460000Y-118110000D01*
X224790000Y-119440000D02*
X223460000Y-119440000D01*
X226060000Y-119440000D02*
X226060000Y-116780000D01*
X226060000Y-116780000D02*
X228660000Y-116780000D01*
X226060000Y-119440000D02*
X228660000Y-119440000D01*
X228660000Y-119440000D02*
X228660000Y-116780000D01*
%TO.C,J3*%
X203140000Y-116780000D02*
X203140000Y-119440000D01*
X205740000Y-116780000D02*
X203140000Y-116780000D01*
X205740000Y-119440000D02*
X203140000Y-119440000D01*
X205740000Y-116780000D02*
X205740000Y-119440000D01*
X207010000Y-116780000D02*
X208340000Y-116780000D01*
X208340000Y-116780000D02*
X208340000Y-118110000D01*
%TO.C,Q1*%
X196120000Y-107369000D02*
X197630000Y-107369000D01*
X196120000Y-111070000D02*
X197630000Y-111070000D01*
X197630000Y-114340000D02*
X197630000Y-104100000D01*
X196120000Y-104100000D02*
X200761000Y-104100000D01*
X196120000Y-114340000D02*
X200761000Y-114340000D01*
X200761000Y-114340000D02*
X200761000Y-104100000D01*
X196120000Y-114340000D02*
X196120000Y-104100000D01*
%TO.C,R1*%
X208380000Y-104680000D02*
X208050000Y-104680000D01*
X208380000Y-111220000D02*
X208380000Y-104680000D01*
X208050000Y-111220000D02*
X208380000Y-111220000D01*
X205640000Y-104680000D02*
X205970000Y-104680000D01*
X205640000Y-111220000D02*
X205640000Y-104680000D01*
X205970000Y-111220000D02*
X205640000Y-111220000D01*
%TO.C,R2*%
X229330000Y-98830000D02*
X229330000Y-99160000D01*
X229330000Y-99160000D02*
X222790000Y-99160000D01*
X222790000Y-99160000D02*
X222790000Y-98830000D01*
X229330000Y-96750000D02*
X229330000Y-96420000D01*
X229330000Y-96420000D02*
X222790000Y-96420000D01*
X222790000Y-96420000D02*
X222790000Y-96750000D01*
%TO.C,RV1*%
X212030000Y-119440000D02*
X212030000Y-118110000D01*
X213360000Y-119440000D02*
X212030000Y-119440000D01*
X214630000Y-119440000D02*
X214630000Y-116780000D01*
X214630000Y-116780000D02*
X219770000Y-116780000D01*
X214630000Y-119440000D02*
X219770000Y-119440000D01*
X219770000Y-119440000D02*
X219770000Y-116780000D01*
%TO.C,U1*%
X218550000Y-91380000D02*
X216900000Y-91380000D01*
X218550000Y-101660000D02*
X218550000Y-91380000D01*
X213250000Y-101660000D02*
X218550000Y-101660000D01*
X213250000Y-91380000D02*
X213250000Y-101660000D01*
X214900000Y-91380000D02*
X213250000Y-91380000D01*
X216900000Y-91380000D02*
G75*
G02*
X214900000Y-91380000I-1000000J0D01*
G01*
%TO.C,M2*%
D10*
X196190476Y-121452380D02*
X196190476Y-120452380D01*
X196523809Y-121166666D01*
X196857142Y-120452380D01*
X196857142Y-121452380D01*
X197285714Y-120547619D02*
X197333333Y-120500000D01*
X197428571Y-120452380D01*
X197666666Y-120452380D01*
X197761904Y-120500000D01*
X197809523Y-120547619D01*
X197857142Y-120642857D01*
X197857142Y-120738095D01*
X197809523Y-120880952D01*
X197238095Y-121452380D01*
X197857142Y-121452380D01*
X229190476Y-90452380D02*
X229190476Y-89452380D01*
X229523809Y-90166666D01*
X229857142Y-89452380D01*
X229857142Y-90452380D01*
X230285714Y-89547619D02*
X230333333Y-89500000D01*
X230428571Y-89452380D01*
X230666666Y-89452380D01*
X230761904Y-89500000D01*
X230809523Y-89547619D01*
X230857142Y-89642857D01*
X230857142Y-89738095D01*
X230809523Y-89880952D01*
X230238095Y-90452380D01*
X230857142Y-90452380D01*
X196190476Y-90452380D02*
X196190476Y-89452380D01*
X196523809Y-90166666D01*
X196857142Y-89452380D01*
X196857142Y-90452380D01*
X197285714Y-89547619D02*
X197333333Y-89500000D01*
X197428571Y-89452380D01*
X197666666Y-89452380D01*
X197761904Y-89500000D01*
X197809523Y-89547619D01*
X197857142Y-89642857D01*
X197857142Y-89738095D01*
X197809523Y-89880952D01*
X197238095Y-90452380D01*
X197857142Y-90452380D01*
%TO.C,*%
%TO.C,C1*%
X215693333Y-114657142D02*
X215645714Y-114704761D01*
X215502857Y-114752380D01*
X215407619Y-114752380D01*
X215264761Y-114704761D01*
X215169523Y-114609523D01*
X215121904Y-114514285D01*
X215074285Y-114323809D01*
X215074285Y-114180952D01*
X215121904Y-113990476D01*
X215169523Y-113895238D01*
X215264761Y-113800000D01*
X215407619Y-113752380D01*
X215502857Y-113752380D01*
X215645714Y-113800000D01*
X215693333Y-113847619D01*
X216645714Y-114752380D02*
X216074285Y-114752380D01*
X216360000Y-114752380D02*
X216360000Y-113752380D01*
X216264761Y-113895238D01*
X216169523Y-113990476D01*
X216074285Y-114038095D01*
X214431428Y-112117142D02*
X214479047Y-112164761D01*
X214431428Y-112212380D01*
X214383809Y-112164761D01*
X214431428Y-112117142D01*
X214431428Y-112212380D01*
X215431428Y-112212380D02*
X214860000Y-112212380D01*
X215145714Y-112212380D02*
X215145714Y-111212380D01*
X215050476Y-111355238D01*
X214955238Y-111450476D01*
X214860000Y-111498095D01*
X215860000Y-112212380D02*
X215860000Y-111545714D01*
X215860000Y-111640952D02*
X215907619Y-111593333D01*
X216002857Y-111545714D01*
X216145714Y-111545714D01*
X216240952Y-111593333D01*
X216288571Y-111688571D01*
X216288571Y-112212380D01*
X216288571Y-111688571D02*
X216336190Y-111593333D01*
X216431428Y-111545714D01*
X216574285Y-111545714D01*
X216669523Y-111593333D01*
X216717142Y-111688571D01*
X216717142Y-112212380D01*
X217050476Y-111545714D02*
X217431428Y-111545714D01*
X217193333Y-112212380D02*
X217193333Y-111355238D01*
X217240952Y-111260000D01*
X217336190Y-111212380D01*
X217431428Y-111212380D01*
%TO.C,C2*%
X223353333Y-105767142D02*
X223305714Y-105814761D01*
X223162857Y-105862380D01*
X223067619Y-105862380D01*
X222924761Y-105814761D01*
X222829523Y-105719523D01*
X222781904Y-105624285D01*
X222734285Y-105433809D01*
X222734285Y-105290952D01*
X222781904Y-105100476D01*
X222829523Y-105005238D01*
X222924761Y-104910000D01*
X223067619Y-104862380D01*
X223162857Y-104862380D01*
X223305714Y-104910000D01*
X223353333Y-104957619D01*
X223734285Y-104957619D02*
X223781904Y-104910000D01*
X223877142Y-104862380D01*
X224115238Y-104862380D01*
X224210476Y-104910000D01*
X224258095Y-104957619D01*
X224305714Y-105052857D01*
X224305714Y-105148095D01*
X224258095Y-105290952D01*
X223686666Y-105862380D01*
X224305714Y-105862380D01*
X224361428Y-106477142D02*
X224409047Y-106524761D01*
X224361428Y-106572380D01*
X224313809Y-106524761D01*
X224361428Y-106477142D01*
X224361428Y-106572380D01*
X225361428Y-106572380D02*
X224790000Y-106572380D01*
X225075714Y-106572380D02*
X225075714Y-105572380D01*
X224980476Y-105715238D01*
X224885238Y-105810476D01*
X224790000Y-105858095D01*
X225790000Y-106572380D02*
X225790000Y-105905714D01*
X225790000Y-106000952D02*
X225837619Y-105953333D01*
X225932857Y-105905714D01*
X226075714Y-105905714D01*
X226170952Y-105953333D01*
X226218571Y-106048571D01*
X226218571Y-106572380D01*
X226218571Y-106048571D02*
X226266190Y-105953333D01*
X226361428Y-105905714D01*
X226504285Y-105905714D01*
X226599523Y-105953333D01*
X226647142Y-106048571D01*
X226647142Y-106572380D01*
X226980476Y-105905714D02*
X227361428Y-105905714D01*
X227123333Y-106572380D02*
X227123333Y-105715238D01*
X227170952Y-105620000D01*
X227266190Y-105572380D01*
X227361428Y-105572380D01*
%TO.C,C3*%
X223353333Y-108307142D02*
X223305714Y-108354761D01*
X223162857Y-108402380D01*
X223067619Y-108402380D01*
X222924761Y-108354761D01*
X222829523Y-108259523D01*
X222781904Y-108164285D01*
X222734285Y-107973809D01*
X222734285Y-107830952D01*
X222781904Y-107640476D01*
X222829523Y-107545238D01*
X222924761Y-107450000D01*
X223067619Y-107402380D01*
X223162857Y-107402380D01*
X223305714Y-107450000D01*
X223353333Y-107497619D01*
X223686666Y-107402380D02*
X224305714Y-107402380D01*
X223972380Y-107783333D01*
X224115238Y-107783333D01*
X224210476Y-107830952D01*
X224258095Y-107878571D01*
X224305714Y-107973809D01*
X224305714Y-108211904D01*
X224258095Y-108307142D01*
X224210476Y-108354761D01*
X224115238Y-108402380D01*
X223829523Y-108402380D01*
X223734285Y-108354761D01*
X223686666Y-108307142D01*
X224361428Y-114097142D02*
X224409047Y-114144761D01*
X224361428Y-114192380D01*
X224313809Y-114144761D01*
X224361428Y-114097142D01*
X224361428Y-114192380D01*
X225361428Y-114192380D02*
X224790000Y-114192380D01*
X225075714Y-114192380D02*
X225075714Y-113192380D01*
X224980476Y-113335238D01*
X224885238Y-113430476D01*
X224790000Y-113478095D01*
X225790000Y-114192380D02*
X225790000Y-113525714D01*
X225790000Y-113620952D02*
X225837619Y-113573333D01*
X225932857Y-113525714D01*
X226075714Y-113525714D01*
X226170952Y-113573333D01*
X226218571Y-113668571D01*
X226218571Y-114192380D01*
X226218571Y-113668571D02*
X226266190Y-113573333D01*
X226361428Y-113525714D01*
X226504285Y-113525714D01*
X226599523Y-113573333D01*
X226647142Y-113668571D01*
X226647142Y-114192380D01*
X226980476Y-113525714D02*
X227361428Y-113525714D01*
X227123333Y-114192380D02*
X227123333Y-113335238D01*
X227170952Y-113240000D01*
X227266190Y-113192380D01*
X227361428Y-113192380D01*
%TO.C,D1*%
X207462380Y-97258095D02*
X206462380Y-97258095D01*
X206462380Y-97020000D01*
X206510000Y-96877142D01*
X206605238Y-96781904D01*
X206700476Y-96734285D01*
X206890952Y-96686666D01*
X207033809Y-96686666D01*
X207224285Y-96734285D01*
X207319523Y-96781904D01*
X207414761Y-96877142D01*
X207462380Y-97020000D01*
X207462380Y-97258095D01*
X207462380Y-95734285D02*
X207462380Y-96305714D01*
X207462380Y-96020000D02*
X206462380Y-96020000D01*
X206605238Y-96115238D01*
X206700476Y-96210476D01*
X206748095Y-96305714D01*
X209582380Y-98662857D02*
X209582380Y-99234285D01*
X209582380Y-98948571D02*
X208582380Y-98948571D01*
X208725238Y-99043809D01*
X208820476Y-99139047D01*
X208868095Y-99234285D01*
X209582380Y-98234285D02*
X208582380Y-98234285D01*
X209582380Y-97662857D01*
X208582380Y-97662857D01*
X208915714Y-96758095D02*
X209582380Y-96758095D01*
X208534761Y-96996190D02*
X209249047Y-97234285D01*
X209249047Y-96615238D01*
X209582380Y-95710476D02*
X209582380Y-96281904D01*
X209582380Y-95996190D02*
X208582380Y-95996190D01*
X208725238Y-96091428D01*
X208820476Y-96186666D01*
X208868095Y-96281904D01*
X208915714Y-94853333D02*
X209582380Y-94853333D01*
X208534761Y-95091428D02*
X209249047Y-95329523D01*
X209249047Y-94710476D01*
X209010952Y-94186666D02*
X208963333Y-94281904D01*
X208915714Y-94329523D01*
X208820476Y-94377142D01*
X208772857Y-94377142D01*
X208677619Y-94329523D01*
X208630000Y-94281904D01*
X208582380Y-94186666D01*
X208582380Y-93996190D01*
X208630000Y-93900952D01*
X208677619Y-93853333D01*
X208772857Y-93805714D01*
X208820476Y-93805714D01*
X208915714Y-93853333D01*
X208963333Y-93900952D01*
X209010952Y-93996190D01*
X209010952Y-94186666D01*
X209058571Y-94281904D01*
X209106190Y-94329523D01*
X209201428Y-94377142D01*
X209391904Y-94377142D01*
X209487142Y-94329523D01*
X209534761Y-94281904D01*
X209582380Y-94186666D01*
X209582380Y-93996190D01*
X209534761Y-93900952D01*
X209487142Y-93853333D01*
X209391904Y-93805714D01*
X209201428Y-93805714D01*
X209106190Y-93853333D01*
X209058571Y-93900952D01*
X209010952Y-93996190D01*
X205662380Y-100591904D02*
X204662380Y-100591904D01*
X205662380Y-100020476D02*
X205090952Y-100449047D01*
X204662380Y-100020476D02*
X205233809Y-100591904D01*
%TO.C,D2*%
X215161904Y-105862380D02*
X215161904Y-104862380D01*
X215400000Y-104862380D01*
X215542857Y-104910000D01*
X215638095Y-105005238D01*
X215685714Y-105100476D01*
X215733333Y-105290952D01*
X215733333Y-105433809D01*
X215685714Y-105624285D01*
X215638095Y-105719523D01*
X215542857Y-105814761D01*
X215400000Y-105862380D01*
X215161904Y-105862380D01*
X216114285Y-104957619D02*
X216161904Y-104910000D01*
X216257142Y-104862380D01*
X216495238Y-104862380D01*
X216590476Y-104910000D01*
X216638095Y-104957619D01*
X216685714Y-105052857D01*
X216685714Y-105148095D01*
X216638095Y-105290952D01*
X216066666Y-105862380D01*
X216685714Y-105862380D01*
X213757142Y-103957380D02*
X213185714Y-103957380D01*
X213471428Y-103957380D02*
X213471428Y-102957380D01*
X213376190Y-103100238D01*
X213280952Y-103195476D01*
X213185714Y-103243095D01*
X214185714Y-103957380D02*
X214185714Y-102957380D01*
X214757142Y-103957380D01*
X214757142Y-102957380D01*
X215661904Y-103290714D02*
X215661904Y-103957380D01*
X215423809Y-102909761D02*
X215185714Y-103624047D01*
X215804761Y-103624047D01*
X216709523Y-103957380D02*
X216138095Y-103957380D01*
X216423809Y-103957380D02*
X216423809Y-102957380D01*
X216328571Y-103100238D01*
X216233333Y-103195476D01*
X216138095Y-103243095D01*
X217566666Y-103290714D02*
X217566666Y-103957380D01*
X217328571Y-102909761D02*
X217090476Y-103624047D01*
X217709523Y-103624047D01*
X218233333Y-103385952D02*
X218138095Y-103338333D01*
X218090476Y-103290714D01*
X218042857Y-103195476D01*
X218042857Y-103147857D01*
X218090476Y-103052619D01*
X218138095Y-103005000D01*
X218233333Y-102957380D01*
X218423809Y-102957380D01*
X218519047Y-103005000D01*
X218566666Y-103052619D01*
X218614285Y-103147857D01*
X218614285Y-103195476D01*
X218566666Y-103290714D01*
X218519047Y-103338333D01*
X218423809Y-103385952D01*
X218233333Y-103385952D01*
X218138095Y-103433571D01*
X218090476Y-103481190D01*
X218042857Y-103576428D01*
X218042857Y-103766904D01*
X218090476Y-103862142D01*
X218138095Y-103909761D01*
X218233333Y-103957380D01*
X218423809Y-103957380D01*
X218519047Y-103909761D01*
X218566666Y-103862142D01*
X218614285Y-103766904D01*
X218614285Y-103576428D01*
X218566666Y-103481190D01*
X218519047Y-103433571D01*
X218423809Y-103385952D01*
%TO.C,D3*%
X215161904Y-109672380D02*
X215161904Y-108672380D01*
X215400000Y-108672380D01*
X215542857Y-108720000D01*
X215638095Y-108815238D01*
X215685714Y-108910476D01*
X215733333Y-109100952D01*
X215733333Y-109243809D01*
X215685714Y-109434285D01*
X215638095Y-109529523D01*
X215542857Y-109624761D01*
X215400000Y-109672380D01*
X215161904Y-109672380D01*
X216066666Y-108672380D02*
X216685714Y-108672380D01*
X216352380Y-109053333D01*
X216495238Y-109053333D01*
X216590476Y-109100952D01*
X216638095Y-109148571D01*
X216685714Y-109243809D01*
X216685714Y-109481904D01*
X216638095Y-109577142D01*
X216590476Y-109624761D01*
X216495238Y-109672380D01*
X216209523Y-109672380D01*
X216114285Y-109624761D01*
X216066666Y-109577142D01*
X213757142Y-107767380D02*
X213185714Y-107767380D01*
X213471428Y-107767380D02*
X213471428Y-106767380D01*
X213376190Y-106910238D01*
X213280952Y-107005476D01*
X213185714Y-107053095D01*
X214185714Y-107767380D02*
X214185714Y-106767380D01*
X214757142Y-107767380D01*
X214757142Y-106767380D01*
X215661904Y-107100714D02*
X215661904Y-107767380D01*
X215423809Y-106719761D02*
X215185714Y-107434047D01*
X215804761Y-107434047D01*
X216709523Y-107767380D02*
X216138095Y-107767380D01*
X216423809Y-107767380D02*
X216423809Y-106767380D01*
X216328571Y-106910238D01*
X216233333Y-107005476D01*
X216138095Y-107053095D01*
X217566666Y-107100714D02*
X217566666Y-107767380D01*
X217328571Y-106719761D02*
X217090476Y-107434047D01*
X217709523Y-107434047D01*
X218233333Y-107195952D02*
X218138095Y-107148333D01*
X218090476Y-107100714D01*
X218042857Y-107005476D01*
X218042857Y-106957857D01*
X218090476Y-106862619D01*
X218138095Y-106815000D01*
X218233333Y-106767380D01*
X218423809Y-106767380D01*
X218519047Y-106815000D01*
X218566666Y-106862619D01*
X218614285Y-106957857D01*
X218614285Y-107005476D01*
X218566666Y-107100714D01*
X218519047Y-107148333D01*
X218423809Y-107195952D01*
X218233333Y-107195952D01*
X218138095Y-107243571D01*
X218090476Y-107291190D01*
X218042857Y-107386428D01*
X218042857Y-107576904D01*
X218090476Y-107672142D01*
X218138095Y-107719761D01*
X218233333Y-107767380D01*
X218423809Y-107767380D01*
X218519047Y-107719761D01*
X218566666Y-107672142D01*
X218614285Y-107576904D01*
X218614285Y-107386428D01*
X218566666Y-107291190D01*
X218519047Y-107243571D01*
X218423809Y-107195952D01*
%TO.C,J1*%
X199056666Y-93642380D02*
X199056666Y-94356666D01*
X199009047Y-94499523D01*
X198913809Y-94594761D01*
X198770952Y-94642380D01*
X198675714Y-94642380D01*
X200056666Y-94642380D02*
X199485238Y-94642380D01*
X199770952Y-94642380D02*
X199770952Y-93642380D01*
X199675714Y-93785238D01*
X199580476Y-93880476D01*
X199485238Y-93928095D01*
X202382380Y-103385238D02*
X201382380Y-103385238D01*
X202096666Y-103051904D01*
X201382380Y-102718571D01*
X202382380Y-102718571D01*
X202382380Y-102099523D02*
X202334761Y-102194761D01*
X202287142Y-102242380D01*
X202191904Y-102290000D01*
X201906190Y-102290000D01*
X201810952Y-102242380D01*
X201763333Y-102194761D01*
X201715714Y-102099523D01*
X201715714Y-101956666D01*
X201763333Y-101861428D01*
X201810952Y-101813809D01*
X201906190Y-101766190D01*
X202191904Y-101766190D01*
X202287142Y-101813809D01*
X202334761Y-101861428D01*
X202382380Y-101956666D01*
X202382380Y-102099523D01*
X201715714Y-101480476D02*
X201715714Y-101099523D01*
X201382380Y-101337619D02*
X202239523Y-101337619D01*
X202334761Y-101290000D01*
X202382380Y-101194761D01*
X202382380Y-101099523D01*
X202382380Y-100623333D02*
X202334761Y-100718571D01*
X202287142Y-100766190D01*
X202191904Y-100813809D01*
X201906190Y-100813809D01*
X201810952Y-100766190D01*
X201763333Y-100718571D01*
X201715714Y-100623333D01*
X201715714Y-100480476D01*
X201763333Y-100385238D01*
X201810952Y-100337619D01*
X201906190Y-100290000D01*
X202191904Y-100290000D01*
X202287142Y-100337619D01*
X202334761Y-100385238D01*
X202382380Y-100480476D01*
X202382380Y-100623333D01*
X202382380Y-99861428D02*
X201715714Y-99861428D01*
X201906190Y-99861428D02*
X201810952Y-99813809D01*
X201763333Y-99766190D01*
X201715714Y-99670952D01*
X201715714Y-99575714D01*
X202287142Y-98670952D02*
X202334761Y-98718571D01*
X202382380Y-98861428D01*
X202382380Y-98956666D01*
X202334761Y-99099523D01*
X202239523Y-99194761D01*
X202144285Y-99242380D01*
X201953809Y-99290000D01*
X201810952Y-99290000D01*
X201620476Y-99242380D01*
X201525238Y-99194761D01*
X201430000Y-99099523D01*
X201382380Y-98956666D01*
X201382380Y-98861428D01*
X201430000Y-98718571D01*
X201477619Y-98670952D01*
X202382380Y-98099523D02*
X202334761Y-98194761D01*
X202287142Y-98242380D01*
X202191904Y-98290000D01*
X201906190Y-98290000D01*
X201810952Y-98242380D01*
X201763333Y-98194761D01*
X201715714Y-98099523D01*
X201715714Y-97956666D01*
X201763333Y-97861428D01*
X201810952Y-97813809D01*
X201906190Y-97766190D01*
X202191904Y-97766190D01*
X202287142Y-97813809D01*
X202334761Y-97861428D01*
X202382380Y-97956666D01*
X202382380Y-98099523D01*
X201715714Y-97337619D02*
X202382380Y-97337619D01*
X201810952Y-97337619D02*
X201763333Y-97290000D01*
X201715714Y-97194761D01*
X201715714Y-97051904D01*
X201763333Y-96956666D01*
X201858571Y-96909047D01*
X202382380Y-96909047D01*
X201715714Y-96432857D02*
X202382380Y-96432857D01*
X201810952Y-96432857D02*
X201763333Y-96385238D01*
X201715714Y-96290000D01*
X201715714Y-96147142D01*
X201763333Y-96051904D01*
X201858571Y-96004285D01*
X202382380Y-96004285D01*
X202334761Y-95147142D02*
X202382380Y-95242380D01*
X202382380Y-95432857D01*
X202334761Y-95528095D01*
X202239523Y-95575714D01*
X201858571Y-95575714D01*
X201763333Y-95528095D01*
X201715714Y-95432857D01*
X201715714Y-95242380D01*
X201763333Y-95147142D01*
X201858571Y-95099523D01*
X201953809Y-95099523D01*
X202049047Y-95575714D01*
X202334761Y-94242380D02*
X202382380Y-94337619D01*
X202382380Y-94528095D01*
X202334761Y-94623333D01*
X202287142Y-94670952D01*
X202191904Y-94718571D01*
X201906190Y-94718571D01*
X201810952Y-94670952D01*
X201763333Y-94623333D01*
X201715714Y-94528095D01*
X201715714Y-94337619D01*
X201763333Y-94242380D01*
X201715714Y-93956666D02*
X201715714Y-93575714D01*
X201382380Y-93813809D02*
X202239523Y-93813809D01*
X202334761Y-93766190D01*
X202382380Y-93670952D01*
X202382380Y-93575714D01*
X202382380Y-93099523D02*
X202334761Y-93194761D01*
X202287142Y-93242380D01*
X202191904Y-93290000D01*
X201906190Y-93290000D01*
X201810952Y-93242380D01*
X201763333Y-93194761D01*
X201715714Y-93099523D01*
X201715714Y-92956666D01*
X201763333Y-92861428D01*
X201810952Y-92813809D01*
X201906190Y-92766190D01*
X202191904Y-92766190D01*
X202287142Y-92813809D01*
X202334761Y-92861428D01*
X202382380Y-92956666D01*
X202382380Y-93099523D01*
X202382380Y-92337619D02*
X201715714Y-92337619D01*
X201906190Y-92337619D02*
X201810952Y-92290000D01*
X201763333Y-92242380D01*
X201715714Y-92147142D01*
X201715714Y-92051904D01*
%TO.C,J2*%
X221912380Y-118443333D02*
X222626666Y-118443333D01*
X222769523Y-118490952D01*
X222864761Y-118586190D01*
X222912380Y-118729047D01*
X222912380Y-118824285D01*
X222007619Y-118014761D02*
X221960000Y-117967142D01*
X221912380Y-117871904D01*
X221912380Y-117633809D01*
X221960000Y-117538571D01*
X222007619Y-117490952D01*
X222102857Y-117443333D01*
X222198095Y-117443333D01*
X222340952Y-117490952D01*
X222912380Y-118062380D01*
X222912380Y-117443333D01*
X219742380Y-116022380D02*
X219742380Y-115022380D01*
X220123333Y-115022380D01*
X220218571Y-115070000D01*
X220266190Y-115117619D01*
X220313809Y-115212857D01*
X220313809Y-115355714D01*
X220266190Y-115450952D01*
X220218571Y-115498571D01*
X220123333Y-115546190D01*
X219742380Y-115546190D01*
X220885238Y-116022380D02*
X220790000Y-115974761D01*
X220742380Y-115927142D01*
X220694761Y-115831904D01*
X220694761Y-115546190D01*
X220742380Y-115450952D01*
X220790000Y-115403333D01*
X220885238Y-115355714D01*
X221028095Y-115355714D01*
X221123333Y-115403333D01*
X221170952Y-115450952D01*
X221218571Y-115546190D01*
X221218571Y-115831904D01*
X221170952Y-115927142D01*
X221123333Y-115974761D01*
X221028095Y-116022380D01*
X220885238Y-116022380D01*
X221551904Y-115355714D02*
X221742380Y-116022380D01*
X221932857Y-115546190D01*
X222123333Y-116022380D01*
X222313809Y-115355714D01*
X223075714Y-115974761D02*
X222980476Y-116022380D01*
X222790000Y-116022380D01*
X222694761Y-115974761D01*
X222647142Y-115879523D01*
X222647142Y-115498571D01*
X222694761Y-115403333D01*
X222790000Y-115355714D01*
X222980476Y-115355714D01*
X223075714Y-115403333D01*
X223123333Y-115498571D01*
X223123333Y-115593809D01*
X222647142Y-115689047D01*
X223551904Y-116022380D02*
X223551904Y-115355714D01*
X223551904Y-115546190D02*
X223599523Y-115450952D01*
X223647142Y-115403333D01*
X223742380Y-115355714D01*
X223837619Y-115355714D01*
X224170952Y-116022380D02*
X224170952Y-115022380D01*
X224170952Y-115498571D02*
X224742380Y-115498571D01*
X224742380Y-116022380D02*
X224742380Y-115022380D01*
X225599523Y-115974761D02*
X225504285Y-116022380D01*
X225313809Y-116022380D01*
X225218571Y-115974761D01*
X225170952Y-115879523D01*
X225170952Y-115498571D01*
X225218571Y-115403333D01*
X225313809Y-115355714D01*
X225504285Y-115355714D01*
X225599523Y-115403333D01*
X225647142Y-115498571D01*
X225647142Y-115593809D01*
X225170952Y-115689047D01*
X226504285Y-116022380D02*
X226504285Y-115498571D01*
X226456666Y-115403333D01*
X226361428Y-115355714D01*
X226170952Y-115355714D01*
X226075714Y-115403333D01*
X226504285Y-115974761D02*
X226409047Y-116022380D01*
X226170952Y-116022380D01*
X226075714Y-115974761D01*
X226028095Y-115879523D01*
X226028095Y-115784285D01*
X226075714Y-115689047D01*
X226170952Y-115641428D01*
X226409047Y-115641428D01*
X226504285Y-115593809D01*
X227409047Y-116022380D02*
X227409047Y-115022380D01*
X227409047Y-115974761D02*
X227313809Y-116022380D01*
X227123333Y-116022380D01*
X227028095Y-115974761D01*
X226980476Y-115927142D01*
X226932857Y-115831904D01*
X226932857Y-115546190D01*
X226980476Y-115450952D01*
X227028095Y-115403333D01*
X227123333Y-115355714D01*
X227313809Y-115355714D01*
X227409047Y-115403333D01*
X228266190Y-115974761D02*
X228170952Y-116022380D01*
X227980476Y-116022380D01*
X227885238Y-115974761D01*
X227837619Y-115879523D01*
X227837619Y-115498571D01*
X227885238Y-115403333D01*
X227980476Y-115355714D01*
X228170952Y-115355714D01*
X228266190Y-115403333D01*
X228313809Y-115498571D01*
X228313809Y-115593809D01*
X227837619Y-115689047D01*
X228742380Y-116022380D02*
X228742380Y-115355714D01*
X228742380Y-115546190D02*
X228790000Y-115450952D01*
X228837619Y-115403333D01*
X228932857Y-115355714D01*
X229028095Y-115355714D01*
X229885238Y-116022380D02*
X229313809Y-116022380D01*
X229599523Y-116022380D02*
X229599523Y-115022380D01*
X229504285Y-115165238D01*
X229409047Y-115260476D01*
X229313809Y-115308095D01*
%TO.C,J3*%
X208792380Y-118443333D02*
X209506666Y-118443333D01*
X209649523Y-118490952D01*
X209744761Y-118586190D01*
X209792380Y-118729047D01*
X209792380Y-118824285D01*
X208792380Y-118062380D02*
X208792380Y-117443333D01*
X209173333Y-117776666D01*
X209173333Y-117633809D01*
X209220952Y-117538571D01*
X209268571Y-117490952D01*
X209363809Y-117443333D01*
X209601904Y-117443333D01*
X209697142Y-117490952D01*
X209744761Y-117538571D01*
X209792380Y-117633809D01*
X209792380Y-117919523D01*
X209744761Y-118014761D01*
X209697142Y-118062380D01*
X200692380Y-116022380D02*
X200692380Y-115022380D01*
X201073333Y-115022380D01*
X201168571Y-115070000D01*
X201216190Y-115117619D01*
X201263809Y-115212857D01*
X201263809Y-115355714D01*
X201216190Y-115450952D01*
X201168571Y-115498571D01*
X201073333Y-115546190D01*
X200692380Y-115546190D01*
X201835238Y-116022380D02*
X201740000Y-115974761D01*
X201692380Y-115927142D01*
X201644761Y-115831904D01*
X201644761Y-115546190D01*
X201692380Y-115450952D01*
X201740000Y-115403333D01*
X201835238Y-115355714D01*
X201978095Y-115355714D01*
X202073333Y-115403333D01*
X202120952Y-115450952D01*
X202168571Y-115546190D01*
X202168571Y-115831904D01*
X202120952Y-115927142D01*
X202073333Y-115974761D01*
X201978095Y-116022380D01*
X201835238Y-116022380D01*
X202501904Y-115355714D02*
X202692380Y-116022380D01*
X202882857Y-115546190D01*
X203073333Y-116022380D01*
X203263809Y-115355714D01*
X204025714Y-115974761D02*
X203930476Y-116022380D01*
X203740000Y-116022380D01*
X203644761Y-115974761D01*
X203597142Y-115879523D01*
X203597142Y-115498571D01*
X203644761Y-115403333D01*
X203740000Y-115355714D01*
X203930476Y-115355714D01*
X204025714Y-115403333D01*
X204073333Y-115498571D01*
X204073333Y-115593809D01*
X203597142Y-115689047D01*
X204501904Y-116022380D02*
X204501904Y-115355714D01*
X204501904Y-115546190D02*
X204549523Y-115450952D01*
X204597142Y-115403333D01*
X204692380Y-115355714D01*
X204787619Y-115355714D01*
X205120952Y-116022380D02*
X205120952Y-115022380D01*
X205120952Y-115498571D02*
X205692380Y-115498571D01*
X205692380Y-116022380D02*
X205692380Y-115022380D01*
X206549523Y-115974761D02*
X206454285Y-116022380D01*
X206263809Y-116022380D01*
X206168571Y-115974761D01*
X206120952Y-115879523D01*
X206120952Y-115498571D01*
X206168571Y-115403333D01*
X206263809Y-115355714D01*
X206454285Y-115355714D01*
X206549523Y-115403333D01*
X206597142Y-115498571D01*
X206597142Y-115593809D01*
X206120952Y-115689047D01*
X207454285Y-116022380D02*
X207454285Y-115498571D01*
X207406666Y-115403333D01*
X207311428Y-115355714D01*
X207120952Y-115355714D01*
X207025714Y-115403333D01*
X207454285Y-115974761D02*
X207359047Y-116022380D01*
X207120952Y-116022380D01*
X207025714Y-115974761D01*
X206978095Y-115879523D01*
X206978095Y-115784285D01*
X207025714Y-115689047D01*
X207120952Y-115641428D01*
X207359047Y-115641428D01*
X207454285Y-115593809D01*
X208359047Y-116022380D02*
X208359047Y-115022380D01*
X208359047Y-115974761D02*
X208263809Y-116022380D01*
X208073333Y-116022380D01*
X207978095Y-115974761D01*
X207930476Y-115927142D01*
X207882857Y-115831904D01*
X207882857Y-115546190D01*
X207930476Y-115450952D01*
X207978095Y-115403333D01*
X208073333Y-115355714D01*
X208263809Y-115355714D01*
X208359047Y-115403333D01*
X209216190Y-115974761D02*
X209120952Y-116022380D01*
X208930476Y-116022380D01*
X208835238Y-115974761D01*
X208787619Y-115879523D01*
X208787619Y-115498571D01*
X208835238Y-115403333D01*
X208930476Y-115355714D01*
X209120952Y-115355714D01*
X209216190Y-115403333D01*
X209263809Y-115498571D01*
X209263809Y-115593809D01*
X208787619Y-115689047D01*
X209692380Y-116022380D02*
X209692380Y-115355714D01*
X209692380Y-115546190D02*
X209740000Y-115450952D01*
X209787619Y-115403333D01*
X209882857Y-115355714D01*
X209978095Y-115355714D01*
X210263809Y-115117619D02*
X210311428Y-115070000D01*
X210406666Y-115022380D01*
X210644761Y-115022380D01*
X210740000Y-115070000D01*
X210787619Y-115117619D01*
X210835238Y-115212857D01*
X210835238Y-115308095D01*
X210787619Y-115450952D01*
X210216190Y-116022380D01*
X210835238Y-116022380D01*
%TO.C,Q1*%
X197397619Y-102965238D02*
X197350000Y-103060476D01*
X197254761Y-103155714D01*
X197111904Y-103298571D01*
X197064285Y-103393809D01*
X197064285Y-103489047D01*
X197302380Y-103441428D02*
X197254761Y-103536666D01*
X197159523Y-103631904D01*
X196969047Y-103679523D01*
X196635714Y-103679523D01*
X196445238Y-103631904D01*
X196350000Y-103536666D01*
X196302380Y-103441428D01*
X196302380Y-103250952D01*
X196350000Y-103155714D01*
X196445238Y-103060476D01*
X196635714Y-103012857D01*
X196969047Y-103012857D01*
X197159523Y-103060476D01*
X197254761Y-103155714D01*
X197302380Y-103250952D01*
X197302380Y-103441428D01*
X197302380Y-102060476D02*
X197302380Y-102631904D01*
X197302380Y-102346190D02*
X196302380Y-102346190D01*
X196445238Y-102441428D01*
X196540476Y-102536666D01*
X196588095Y-102631904D01*
X201342380Y-111696190D02*
X201342380Y-111124761D01*
X202342380Y-111410476D02*
X201342380Y-111410476D01*
X202342380Y-110791428D02*
X201342380Y-110791428D01*
X202342380Y-110315238D02*
X201342380Y-110315238D01*
X201342380Y-109934285D01*
X201390000Y-109839047D01*
X201437619Y-109791428D01*
X201532857Y-109743809D01*
X201675714Y-109743809D01*
X201770952Y-109791428D01*
X201818571Y-109839047D01*
X201866190Y-109934285D01*
X201866190Y-110315238D01*
X201342380Y-109410476D02*
X201342380Y-108791428D01*
X201723333Y-109124761D01*
X201723333Y-108981904D01*
X201770952Y-108886666D01*
X201818571Y-108839047D01*
X201913809Y-108791428D01*
X202151904Y-108791428D01*
X202247142Y-108839047D01*
X202294761Y-108886666D01*
X202342380Y-108981904D01*
X202342380Y-109267619D01*
X202294761Y-109362857D01*
X202247142Y-109410476D01*
X202342380Y-107839047D02*
X202342380Y-108410476D01*
X202342380Y-108124761D02*
X201342380Y-108124761D01*
X201485238Y-108220000D01*
X201580476Y-108315238D01*
X201628095Y-108410476D01*
X202247142Y-106839047D02*
X202294761Y-106886666D01*
X202342380Y-107029523D01*
X202342380Y-107124761D01*
X202294761Y-107267619D01*
X202199523Y-107362857D01*
X202104285Y-107410476D01*
X201913809Y-107458095D01*
X201770952Y-107458095D01*
X201580476Y-107410476D01*
X201485238Y-107362857D01*
X201390000Y-107267619D01*
X201342380Y-107124761D01*
X201342380Y-107029523D01*
X201390000Y-106886666D01*
X201437619Y-106839047D01*
%TO.C,R1*%
X207462380Y-108116666D02*
X206986190Y-108450000D01*
X207462380Y-108688095D02*
X206462380Y-108688095D01*
X206462380Y-108307142D01*
X206510000Y-108211904D01*
X206557619Y-108164285D01*
X206652857Y-108116666D01*
X206795714Y-108116666D01*
X206890952Y-108164285D01*
X206938571Y-108211904D01*
X206986190Y-108307142D01*
X206986190Y-108688095D01*
X207462380Y-107164285D02*
X207462380Y-107735714D01*
X207462380Y-107450000D02*
X206462380Y-107450000D01*
X206605238Y-107545238D01*
X206700476Y-107640476D01*
X206748095Y-107735714D01*
%TO.C,R2*%
X225893333Y-98242380D02*
X225560000Y-97766190D01*
X225321904Y-98242380D02*
X225321904Y-97242380D01*
X225702857Y-97242380D01*
X225798095Y-97290000D01*
X225845714Y-97337619D01*
X225893333Y-97432857D01*
X225893333Y-97575714D01*
X225845714Y-97670952D01*
X225798095Y-97718571D01*
X225702857Y-97766190D01*
X225321904Y-97766190D01*
X226274285Y-97337619D02*
X226321904Y-97290000D01*
X226417142Y-97242380D01*
X226655238Y-97242380D01*
X226750476Y-97290000D01*
X226798095Y-97337619D01*
X226845714Y-97432857D01*
X226845714Y-97528095D01*
X226798095Y-97670952D01*
X226226666Y-98242380D01*
X226845714Y-98242380D01*
X225464761Y-95872380D02*
X224893333Y-95872380D01*
X225179047Y-95872380D02*
X225179047Y-94872380D01*
X225083809Y-95015238D01*
X224988571Y-95110476D01*
X224893333Y-95158095D01*
X226083809Y-94872380D02*
X226179047Y-94872380D01*
X226274285Y-94920000D01*
X226321904Y-94967619D01*
X226369523Y-95062857D01*
X226417142Y-95253333D01*
X226417142Y-95491428D01*
X226369523Y-95681904D01*
X226321904Y-95777142D01*
X226274285Y-95824761D01*
X226179047Y-95872380D01*
X226083809Y-95872380D01*
X225988571Y-95824761D01*
X225940952Y-95777142D01*
X225893333Y-95681904D01*
X225845714Y-95491428D01*
X225845714Y-95253333D01*
X225893333Y-95062857D01*
X225940952Y-94967619D01*
X225988571Y-94920000D01*
X226083809Y-94872380D01*
X226845714Y-95872380D02*
X226845714Y-94872380D01*
X226940952Y-95491428D02*
X227226666Y-95872380D01*
X227226666Y-95205714D02*
X226845714Y-95586666D01*
%TO.C,RV1*%
X211482380Y-118705238D02*
X211006190Y-119038571D01*
X211482380Y-119276666D02*
X210482380Y-119276666D01*
X210482380Y-118895714D01*
X210530000Y-118800476D01*
X210577619Y-118752857D01*
X210672857Y-118705238D01*
X210815714Y-118705238D01*
X210910952Y-118752857D01*
X210958571Y-118800476D01*
X211006190Y-118895714D01*
X211006190Y-119276666D01*
X210482380Y-118419523D02*
X211482380Y-118086190D01*
X210482380Y-117752857D01*
X211482380Y-116895714D02*
X211482380Y-117467142D01*
X211482380Y-117181428D02*
X210482380Y-117181428D01*
X210625238Y-117276666D01*
X210720476Y-117371904D01*
X210768095Y-117467142D01*
X221222380Y-119276666D02*
X221222380Y-119848095D01*
X221222380Y-119562380D02*
X220222380Y-119562380D01*
X220365238Y-119657619D01*
X220460476Y-119752857D01*
X220508095Y-119848095D01*
X220222380Y-118657619D02*
X220222380Y-118562380D01*
X220270000Y-118467142D01*
X220317619Y-118419523D01*
X220412857Y-118371904D01*
X220603333Y-118324285D01*
X220841428Y-118324285D01*
X221031904Y-118371904D01*
X221127142Y-118419523D01*
X221174761Y-118467142D01*
X221222380Y-118562380D01*
X221222380Y-118657619D01*
X221174761Y-118752857D01*
X221127142Y-118800476D01*
X221031904Y-118848095D01*
X220841428Y-118895714D01*
X220603333Y-118895714D01*
X220412857Y-118848095D01*
X220317619Y-118800476D01*
X220270000Y-118752857D01*
X220222380Y-118657619D01*
X220222380Y-117705238D02*
X220222380Y-117610000D01*
X220270000Y-117514761D01*
X220317619Y-117467142D01*
X220412857Y-117419523D01*
X220603333Y-117371904D01*
X220841428Y-117371904D01*
X221031904Y-117419523D01*
X221127142Y-117467142D01*
X221174761Y-117514761D01*
X221222380Y-117610000D01*
X221222380Y-117705238D01*
X221174761Y-117800476D01*
X221127142Y-117848095D01*
X221031904Y-117895714D01*
X220841428Y-117943333D01*
X220603333Y-117943333D01*
X220412857Y-117895714D01*
X220317619Y-117848095D01*
X220270000Y-117800476D01*
X220222380Y-117705238D01*
X221222380Y-116943333D02*
X220222380Y-116943333D01*
X221222380Y-116371904D02*
X220650952Y-116800476D01*
X220222380Y-116371904D02*
X220793809Y-116943333D01*
%TO.C,U1*%
X213868095Y-95972380D02*
X213868095Y-96781904D01*
X213915714Y-96877142D01*
X213963333Y-96924761D01*
X214058571Y-96972380D01*
X214249047Y-96972380D01*
X214344285Y-96924761D01*
X214391904Y-96877142D01*
X214439523Y-96781904D01*
X214439523Y-95972380D01*
X215439523Y-96972380D02*
X214868095Y-96972380D01*
X215153809Y-96972380D02*
X215153809Y-95972380D01*
X215058571Y-96115238D01*
X214963333Y-96210476D01*
X214868095Y-96258095D01*
X217622380Y-99139047D02*
X217622380Y-99615238D01*
X216622380Y-99615238D01*
X217622380Y-98805714D02*
X216622380Y-98805714D01*
X217336666Y-98472380D01*
X216622380Y-98139047D01*
X217622380Y-98139047D01*
X216622380Y-97186666D02*
X216622380Y-97662857D01*
X217098571Y-97710476D01*
X217050952Y-97662857D01*
X217003333Y-97567619D01*
X217003333Y-97329523D01*
X217050952Y-97234285D01*
X217098571Y-97186666D01*
X217193809Y-97139047D01*
X217431904Y-97139047D01*
X217527142Y-97186666D01*
X217574761Y-97234285D01*
X217622380Y-97329523D01*
X217622380Y-97567619D01*
X217574761Y-97662857D01*
X217527142Y-97710476D01*
X216622380Y-96234285D02*
X216622380Y-96710476D01*
X217098571Y-96758095D01*
X217050952Y-96710476D01*
X217003333Y-96615238D01*
X217003333Y-96377142D01*
X217050952Y-96281904D01*
X217098571Y-96234285D01*
X217193809Y-96186666D01*
X217431904Y-96186666D01*
X217527142Y-96234285D01*
X217574761Y-96281904D01*
X217622380Y-96377142D01*
X217622380Y-96615238D01*
X217574761Y-96710476D01*
X217527142Y-96758095D01*
X216622380Y-95281904D02*
X216622380Y-95758095D01*
X217098571Y-95805714D01*
X217050952Y-95758095D01*
X217003333Y-95662857D01*
X217003333Y-95424761D01*
X217050952Y-95329523D01*
X217098571Y-95281904D01*
X217193809Y-95234285D01*
X217431904Y-95234285D01*
X217527142Y-95281904D01*
X217574761Y-95329523D01*
X217622380Y-95424761D01*
X217622380Y-95662857D01*
X217574761Y-95758095D01*
X217527142Y-95805714D01*
X217622380Y-94900952D02*
X216955714Y-94377142D01*
X216955714Y-94900952D02*
X217622380Y-94377142D01*
X217622380Y-93996190D02*
X216622380Y-93996190D01*
X217622380Y-93424761D01*
X216622380Y-93424761D01*
%TD*%
M02*
