%TF.GenerationSoftware,KiCad,Pcbnew,(5.1.6)-1*%
%TF.CreationDate,2020-09-13T20:14:07-05:00*%
%TF.ProjectId,CircuitBoard,43697263-7569-4744-926f-6172642e6b69,rev?*%
%TF.SameCoordinates,Original*%
%TF.FileFunction,Soldermask,Bot*%
%TF.FilePolarity,Negative*%
%FSLAX46Y46*%
G04 Gerber Fmt 4.6, Leading zero omitted, Abs format (unit mm)*
G04 Created by KiCad (PCBNEW (5.1.6)-1) date 2020-09-13 20:14:07*
%MOMM*%
%LPD*%
G01*
G04 APERTURE LIST*
%ADD10C,2.300000*%
%ADD11C,1.700000*%
%ADD12C,1.300000*%
%ADD13R,1.300000X1.300000*%
%ADD14R,1.700000X1.700000*%
%ADD15O,1.700000X1.700000*%
%ADD16R,1.800000X1.800000*%
%ADD17O,1.800000X1.800000*%
%ADD18R,2.100000X2.005000*%
%ADD19O,2.100000X2.005000*%
G04 APERTURE END LIST*
D10*
%TO.C,M2*%
X199000000Y-118000000D03*
%TD*%
%TO.C,M2*%
X228000000Y-92000000D03*
%TD*%
%TO.C,M2*%
X199000000Y-92000000D03*
%TD*%
D11*
%TO.C,C1*%
X213360000Y-114300000D03*
X218360000Y-114300000D03*
%TD*%
D12*
%TO.C,C2*%
X226790000Y-102870000D03*
D13*
X224790000Y-102870000D03*
%TD*%
%TO.C,C3*%
X224790000Y-110490000D03*
D12*
X226790000Y-110490000D03*
%TD*%
D14*
%TO.C,D1*%
X207010000Y-100330000D03*
D15*
X207010000Y-92710000D03*
%TD*%
D14*
%TO.C,D2*%
X212090000Y-105410000D03*
D15*
X219710000Y-105410000D03*
%TD*%
%TO.C,D3*%
X212090000Y-109220000D03*
D14*
X219710000Y-109220000D03*
%TD*%
D16*
%TO.C,J1*%
X199390000Y-96520000D03*
D17*
X199390000Y-99060000D03*
%TD*%
D16*
%TO.C,J2*%
X224790000Y-118110000D03*
D17*
X227330000Y-118110000D03*
%TD*%
%TO.C,J3*%
X204470000Y-118110000D03*
D16*
X207010000Y-118110000D03*
%TD*%
D18*
%TO.C,Q1*%
X199390000Y-111760000D03*
D19*
X199390000Y-109220000D03*
X199390000Y-106680000D03*
%TD*%
D11*
%TO.C,R1*%
X207010000Y-111760000D03*
D15*
X207010000Y-104140000D03*
%TD*%
%TO.C,R2*%
X222250000Y-97790000D03*
D11*
X229870000Y-97790000D03*
%TD*%
D16*
%TO.C,RV1*%
X213360000Y-118110000D03*
D17*
X215900000Y-118110000D03*
X218440000Y-118110000D03*
%TD*%
D14*
%TO.C,U1*%
X212090000Y-92710000D03*
D15*
X219710000Y-100330000D03*
X212090000Y-95250000D03*
X219710000Y-97790000D03*
X212090000Y-97790000D03*
X219710000Y-95250000D03*
X212090000Y-100330000D03*
X219710000Y-92710000D03*
%TD*%
M02*
