M48
; DRILL file {KiCad (5.1.6)-1} date 11/27/20 00:36:10
; FORMAT={-:-/ absolute / inch / decimal}
; #@! TF.CreationDate,2020-11-27T00:36:10-06:00
; #@! TF.GenerationSoftware,Kicad,Pcbnew,(5.1.6)-1
; #@! TF.FileFunction,Plated,1,2,PTH
FMAT,2
INCH
T1C0.0236
T2C0.0315
T3C0.0433
%
G90
G05
T1
X8.628Y-4.3504
X8.628Y-4.4291
X8.3602Y-4.3504
X8.3602Y-4.4291
T2
X8.1689Y-4.1634
X8.5689Y-4.1634
X7.9016Y-4.3445
X8.0984Y-4.3445
X8.7559Y-3.5921
X8.7559Y-3.9921
X8.0138Y-3.8465
X8.0138Y-4.0465
X8.2146Y-3.6063
X8.2146Y-3.7063
X8.2146Y-3.8063
X8.2146Y-3.9063
X8.5146Y-3.6063
X8.5146Y-3.7063
X8.5146Y-3.8063
X8.5146Y-3.9063
X7.8268Y-3.8465
X7.8268Y-3.9252
X8.7598Y-4.6339
X8.8386Y-4.6339
X8.9173Y-4.6339
X8.0197Y-4.6496
X8.0984Y-4.6496
X8.7567Y-4.1417
X8.9567Y-4.1417
X8.9567Y-4.2756
X8.9567Y-4.4756
X8.0197Y-4.5157
X8.0984Y-4.5157
T3
X8.3413Y-4.5807
X8.4413Y-4.5807
X8.5413Y-4.5807
T0
M30
