%TF.GenerationSoftware,KiCad,Pcbnew,(5.1.6)-1*%
%TF.CreationDate,2020-11-27T00:36:02-06:00*%
%TF.ProjectId,CircuitBoard,43697263-7569-4744-926f-6172642e6b69,rev?*%
%TF.SameCoordinates,Original*%
%TF.FileFunction,Legend,Top*%
%TF.FilePolarity,Positive*%
%FSLAX46Y46*%
G04 Gerber Fmt 4.6, Leading zero omitted, Abs format (unit mm)*
G04 Created by KiCad (PCBNEW (5.1.6)-1) date 2020-11-27 00:36:02*
%MOMM*%
%LPD*%
G01*
G04 APERTURE LIST*
%ADD10C,0.150000*%
%ADD11C,0.010000*%
%ADD12C,0.120000*%
G04 APERTURE END LIST*
D10*
X225576190Y-99591666D02*
X226052380Y-99591666D01*
X225480952Y-99877380D02*
X225814285Y-98877380D01*
X226147619Y-99877380D01*
X226480952Y-99210714D02*
X226480952Y-99877380D01*
X226480952Y-99305952D02*
X226528571Y-99258333D01*
X226623809Y-99210714D01*
X226766666Y-99210714D01*
X226861904Y-99258333D01*
X226909523Y-99353571D01*
X226909523Y-99877380D01*
X227528571Y-99877380D02*
X227433333Y-99829761D01*
X227385714Y-99782142D01*
X227338095Y-99686904D01*
X227338095Y-99401190D01*
X227385714Y-99305952D01*
X227433333Y-99258333D01*
X227528571Y-99210714D01*
X227671428Y-99210714D01*
X227766666Y-99258333D01*
X227814285Y-99305952D01*
X227861904Y-99401190D01*
X227861904Y-99686904D01*
X227814285Y-99782142D01*
X227766666Y-99829761D01*
X227671428Y-99877380D01*
X227528571Y-99877380D01*
X228719047Y-99877380D02*
X228719047Y-98877380D01*
X228719047Y-99829761D02*
X228623809Y-99877380D01*
X228433333Y-99877380D01*
X228338095Y-99829761D01*
X228290476Y-99782142D01*
X228242857Y-99686904D01*
X228242857Y-99401190D01*
X228290476Y-99305952D01*
X228338095Y-99258333D01*
X228433333Y-99210714D01*
X228623809Y-99210714D01*
X228719047Y-99258333D01*
X229576190Y-99829761D02*
X229480952Y-99877380D01*
X229290476Y-99877380D01*
X229195238Y-99829761D01*
X229147619Y-99734523D01*
X229147619Y-99353571D01*
X229195238Y-99258333D01*
X229290476Y-99210714D01*
X229480952Y-99210714D01*
X229576190Y-99258333D01*
X229623809Y-99353571D01*
X229623809Y-99448809D01*
X229147619Y-99544047D01*
X226623809Y-100527380D02*
X226623809Y-101336904D01*
X226671428Y-101432142D01*
X226719047Y-101479761D01*
X226814285Y-101527380D01*
X227004761Y-101527380D01*
X227100000Y-101479761D01*
X227147619Y-101432142D01*
X227195238Y-101336904D01*
X227195238Y-100527380D01*
X227671428Y-100860714D02*
X227671428Y-101860714D01*
X227671428Y-100908333D02*
X227766666Y-100860714D01*
X227957142Y-100860714D01*
X228052380Y-100908333D01*
X228100000Y-100955952D01*
X228147619Y-101051190D01*
X228147619Y-101336904D01*
X228100000Y-101432142D01*
X228052380Y-101479761D01*
X227957142Y-101527380D01*
X227766666Y-101527380D01*
X227671428Y-101479761D01*
X228576190Y-101432142D02*
X228623809Y-101479761D01*
X228576190Y-101527380D01*
X228528571Y-101479761D01*
X228576190Y-101432142D01*
X228576190Y-101527380D01*
X228576190Y-101146428D02*
X228528571Y-100575000D01*
X228576190Y-100527380D01*
X228623809Y-100575000D01*
X228576190Y-101146428D01*
X228576190Y-100527380D01*
X198028571Y-102552380D02*
X197695238Y-102076190D01*
X197457142Y-102552380D02*
X197457142Y-101552380D01*
X197838095Y-101552380D01*
X197933333Y-101600000D01*
X197980952Y-101647619D01*
X198028571Y-101742857D01*
X198028571Y-101885714D01*
X197980952Y-101980952D01*
X197933333Y-102028571D01*
X197838095Y-102076190D01*
X197457142Y-102076190D01*
X198838095Y-102504761D02*
X198742857Y-102552380D01*
X198552380Y-102552380D01*
X198457142Y-102504761D01*
X198409523Y-102409523D01*
X198409523Y-102028571D01*
X198457142Y-101933333D01*
X198552380Y-101885714D01*
X198742857Y-101885714D01*
X198838095Y-101933333D01*
X198885714Y-102028571D01*
X198885714Y-102123809D01*
X198409523Y-102219047D01*
X199742857Y-102552380D02*
X199742857Y-101552380D01*
X199742857Y-102504761D02*
X199647619Y-102552380D01*
X199457142Y-102552380D01*
X199361904Y-102504761D01*
X199314285Y-102457142D01*
X199266666Y-102361904D01*
X199266666Y-102076190D01*
X199314285Y-101980952D01*
X199361904Y-101933333D01*
X199457142Y-101885714D01*
X199647619Y-101885714D01*
X199742857Y-101933333D01*
X200902380Y-117690476D02*
X201902380Y-117357142D01*
X200902380Y-117023809D01*
X201854761Y-116261904D02*
X201902380Y-116357142D01*
X201902380Y-116547619D01*
X201854761Y-116642857D01*
X201807142Y-116690476D01*
X201711904Y-116738095D01*
X201426190Y-116738095D01*
X201330952Y-116690476D01*
X201283333Y-116642857D01*
X201235714Y-116547619D01*
X201235714Y-116357142D01*
X201283333Y-116261904D01*
X201854761Y-115404761D02*
X201902380Y-115500000D01*
X201902380Y-115690476D01*
X201854761Y-115785714D01*
X201807142Y-115833333D01*
X201711904Y-115880952D01*
X201426190Y-115880952D01*
X201330952Y-115833333D01*
X201283333Y-115785714D01*
X201235714Y-115690476D01*
X201235714Y-115500000D01*
X201283333Y-115404761D01*
X207550000Y-117461904D02*
X207502380Y-117557142D01*
X207502380Y-117700000D01*
X207550000Y-117842857D01*
X207645238Y-117938095D01*
X207740476Y-117985714D01*
X207930952Y-118033333D01*
X208073809Y-118033333D01*
X208264285Y-117985714D01*
X208359523Y-117938095D01*
X208454761Y-117842857D01*
X208502380Y-117700000D01*
X208502380Y-117604761D01*
X208454761Y-117461904D01*
X208407142Y-117414285D01*
X208073809Y-117414285D01*
X208073809Y-117604761D01*
X208502380Y-116985714D02*
X207502380Y-116985714D01*
X208502380Y-116414285D01*
X207502380Y-116414285D01*
X208502380Y-115938095D02*
X207502380Y-115938095D01*
X207502380Y-115700000D01*
X207550000Y-115557142D01*
X207645238Y-115461904D01*
X207740476Y-115414285D01*
X207930952Y-115366666D01*
X208073809Y-115366666D01*
X208264285Y-115414285D01*
X208359523Y-115461904D01*
X208454761Y-115557142D01*
X208502380Y-115700000D01*
X208502380Y-115938095D01*
X217666666Y-121452380D02*
X217095238Y-121452380D01*
X217380952Y-121452380D02*
X217380952Y-120452380D01*
X217285714Y-120595238D01*
X217190476Y-120690476D01*
X217095238Y-120738095D01*
X218619047Y-121452380D02*
X218047619Y-121452380D01*
X218333333Y-121452380D02*
X218333333Y-120452380D01*
X218238095Y-120595238D01*
X218142857Y-120690476D01*
X218047619Y-120738095D01*
X219047619Y-121071428D02*
X219809523Y-121071428D01*
X220238095Y-120547619D02*
X220285714Y-120500000D01*
X220380952Y-120452380D01*
X220619047Y-120452380D01*
X220714285Y-120500000D01*
X220761904Y-120547619D01*
X220809523Y-120642857D01*
X220809523Y-120738095D01*
X220761904Y-120880952D01*
X220190476Y-121452380D01*
X220809523Y-121452380D01*
X221666666Y-120452380D02*
X221476190Y-120452380D01*
X221380952Y-120500000D01*
X221333333Y-120547619D01*
X221238095Y-120690476D01*
X221190476Y-120880952D01*
X221190476Y-121261904D01*
X221238095Y-121357142D01*
X221285714Y-121404761D01*
X221380952Y-121452380D01*
X221571428Y-121452380D01*
X221666666Y-121404761D01*
X221714285Y-121357142D01*
X221761904Y-121261904D01*
X221761904Y-121023809D01*
X221714285Y-120928571D01*
X221666666Y-120880952D01*
X221571428Y-120833333D01*
X221380952Y-120833333D01*
X221285714Y-120880952D01*
X221238095Y-120928571D01*
X221190476Y-121023809D01*
X222190476Y-121071428D02*
X222952380Y-121071428D01*
X223380952Y-120547619D02*
X223428571Y-120500000D01*
X223523809Y-120452380D01*
X223761904Y-120452380D01*
X223857142Y-120500000D01*
X223904761Y-120547619D01*
X223952380Y-120642857D01*
X223952380Y-120738095D01*
X223904761Y-120880952D01*
X223333333Y-121452380D01*
X223952380Y-121452380D01*
X224571428Y-120452380D02*
X224666666Y-120452380D01*
X224761904Y-120500000D01*
X224809523Y-120547619D01*
X224857142Y-120642857D01*
X224904761Y-120833333D01*
X224904761Y-121071428D01*
X224857142Y-121261904D01*
X224809523Y-121357142D01*
X224761904Y-121404761D01*
X224666666Y-121452380D01*
X224571428Y-121452380D01*
X224476190Y-121404761D01*
X224428571Y-121357142D01*
X224380952Y-121261904D01*
X224333333Y-121071428D01*
X224333333Y-120833333D01*
X224380952Y-120642857D01*
X224428571Y-120547619D01*
X224476190Y-120500000D01*
X224571428Y-120452380D01*
X203000000Y-120452380D02*
X203190476Y-120452380D01*
X203285714Y-120500000D01*
X203380952Y-120595238D01*
X203428571Y-120785714D01*
X203428571Y-121119047D01*
X203380952Y-121309523D01*
X203285714Y-121404761D01*
X203190476Y-121452380D01*
X203000000Y-121452380D01*
X202904761Y-121404761D01*
X202809523Y-121309523D01*
X202761904Y-121119047D01*
X202761904Y-120785714D01*
X202809523Y-120595238D01*
X202904761Y-120500000D01*
X203000000Y-120452380D01*
X203857142Y-120785714D02*
X203857142Y-121785714D01*
X203857142Y-120833333D02*
X203952380Y-120785714D01*
X204142857Y-120785714D01*
X204238095Y-120833333D01*
X204285714Y-120880952D01*
X204333333Y-120976190D01*
X204333333Y-121261904D01*
X204285714Y-121357142D01*
X204238095Y-121404761D01*
X204142857Y-121452380D01*
X203952380Y-121452380D01*
X203857142Y-121404761D01*
X205142857Y-121404761D02*
X205047619Y-121452380D01*
X204857142Y-121452380D01*
X204761904Y-121404761D01*
X204714285Y-121309523D01*
X204714285Y-120928571D01*
X204761904Y-120833333D01*
X204857142Y-120785714D01*
X205047619Y-120785714D01*
X205142857Y-120833333D01*
X205190476Y-120928571D01*
X205190476Y-121023809D01*
X204714285Y-121119047D01*
X205619047Y-120785714D02*
X205619047Y-121452380D01*
X205619047Y-120880952D02*
X205666666Y-120833333D01*
X205761904Y-120785714D01*
X205904761Y-120785714D01*
X206000000Y-120833333D01*
X206047619Y-120928571D01*
X206047619Y-121452380D01*
X207095238Y-121357142D02*
X207047619Y-121404761D01*
X206904761Y-121452380D01*
X206809523Y-121452380D01*
X206666666Y-121404761D01*
X206571428Y-121309523D01*
X206523809Y-121214285D01*
X206476190Y-121023809D01*
X206476190Y-120880952D01*
X206523809Y-120690476D01*
X206571428Y-120595238D01*
X206666666Y-120500000D01*
X206809523Y-120452380D01*
X206904761Y-120452380D01*
X207047619Y-120500000D01*
X207095238Y-120547619D01*
X207666666Y-121452380D02*
X207571428Y-121404761D01*
X207523809Y-121309523D01*
X207523809Y-120452380D01*
X208047619Y-121452380D02*
X208047619Y-120785714D01*
X208047619Y-120452380D02*
X208000000Y-120500000D01*
X208047619Y-120547619D01*
X208095238Y-120500000D01*
X208047619Y-120452380D01*
X208047619Y-120547619D01*
X208523809Y-120785714D02*
X208523809Y-121452380D01*
X208523809Y-120880952D02*
X208571428Y-120833333D01*
X208666666Y-120785714D01*
X208809523Y-120785714D01*
X208904761Y-120833333D01*
X208952380Y-120928571D01*
X208952380Y-121452380D01*
X209571428Y-121452380D02*
X209476190Y-121404761D01*
X209428571Y-121357142D01*
X209380952Y-121261904D01*
X209380952Y-120976190D01*
X209428571Y-120880952D01*
X209476190Y-120833333D01*
X209571428Y-120785714D01*
X209714285Y-120785714D01*
X209809523Y-120833333D01*
X209857142Y-120880952D01*
X209904761Y-120976190D01*
X209904761Y-121261904D01*
X209857142Y-121357142D01*
X209809523Y-121404761D01*
X209714285Y-121452380D01*
X209571428Y-121452380D01*
X210285714Y-121404761D02*
X210380952Y-121452380D01*
X210571428Y-121452380D01*
X210666666Y-121404761D01*
X210714285Y-121309523D01*
X210714285Y-121261904D01*
X210666666Y-121166666D01*
X210571428Y-121119047D01*
X210428571Y-121119047D01*
X210333333Y-121071428D01*
X210285714Y-120976190D01*
X210285714Y-120928571D01*
X210333333Y-120833333D01*
X210428571Y-120785714D01*
X210571428Y-120785714D01*
X210666666Y-120833333D01*
X211000000Y-120785714D02*
X211380952Y-120785714D01*
X211142857Y-120452380D02*
X211142857Y-121309523D01*
X211190476Y-121404761D01*
X211285714Y-121452380D01*
X211380952Y-121452380D01*
X212142857Y-121452380D02*
X212142857Y-120928571D01*
X212095238Y-120833333D01*
X212000000Y-120785714D01*
X211809523Y-120785714D01*
X211714285Y-120833333D01*
X212142857Y-121404761D02*
X212047619Y-121452380D01*
X211809523Y-121452380D01*
X211714285Y-121404761D01*
X211666666Y-121309523D01*
X211666666Y-121214285D01*
X211714285Y-121119047D01*
X211809523Y-121071428D01*
X212047619Y-121071428D01*
X212142857Y-121023809D01*
X212476190Y-120785714D02*
X212857142Y-120785714D01*
X212619047Y-120452380D02*
X212619047Y-121309523D01*
X212666666Y-121404761D01*
X212761904Y-121452380D01*
X212857142Y-121452380D01*
X213857142Y-120785714D02*
X214095238Y-121452380D01*
X214333333Y-120785714D01*
X214666666Y-120547619D02*
X214714285Y-120500000D01*
X214809523Y-120452380D01*
X215047619Y-120452380D01*
X215142857Y-120500000D01*
X215190476Y-120547619D01*
X215238095Y-120642857D01*
X215238095Y-120738095D01*
X215190476Y-120880952D01*
X214619047Y-121452380D01*
X215238095Y-121452380D01*
D11*
%TO.C,REF\u002A\u002A*%
G36*
X204655814Y-90918931D02*
G01*
X204739635Y-91363555D01*
X205048920Y-91491053D01*
X205358206Y-91618551D01*
X205729246Y-91366246D01*
X205833157Y-91295996D01*
X205927087Y-91233272D01*
X206006652Y-91180938D01*
X206067470Y-91141857D01*
X206105157Y-91118893D01*
X206115421Y-91113942D01*
X206133910Y-91126676D01*
X206173420Y-91161882D01*
X206229522Y-91215062D01*
X206297787Y-91281718D01*
X206373786Y-91357354D01*
X206453092Y-91437472D01*
X206531275Y-91517574D01*
X206603907Y-91593164D01*
X206666559Y-91659745D01*
X206714803Y-91712818D01*
X206744210Y-91747887D01*
X206751241Y-91759623D01*
X206741123Y-91781260D01*
X206712759Y-91828662D01*
X206669129Y-91897193D01*
X206613218Y-91982215D01*
X206548006Y-92079093D01*
X206510219Y-92134350D01*
X206441343Y-92235248D01*
X206380140Y-92326299D01*
X206329578Y-92402970D01*
X206292628Y-92460728D01*
X206272258Y-92495043D01*
X206269197Y-92502254D01*
X206276136Y-92522748D01*
X206295051Y-92570513D01*
X206323087Y-92638832D01*
X206357391Y-92720989D01*
X206395109Y-92810270D01*
X206433387Y-92899958D01*
X206469370Y-92983338D01*
X206500206Y-93053694D01*
X206523039Y-93104310D01*
X206535017Y-93128471D01*
X206535724Y-93129422D01*
X206554531Y-93134036D01*
X206604618Y-93144328D01*
X206680793Y-93159287D01*
X206777865Y-93177901D01*
X206890643Y-93199159D01*
X206956442Y-93211418D01*
X207076950Y-93234362D01*
X207185797Y-93256195D01*
X207277476Y-93275722D01*
X207346481Y-93291748D01*
X207387304Y-93303079D01*
X207395511Y-93306674D01*
X207403548Y-93331006D01*
X207410033Y-93385959D01*
X207414970Y-93465108D01*
X207418364Y-93562026D01*
X207420218Y-93670287D01*
X207420538Y-93783465D01*
X207419327Y-93895135D01*
X207416590Y-93998868D01*
X207412331Y-94088241D01*
X207406555Y-94156826D01*
X207399267Y-94198197D01*
X207394895Y-94206810D01*
X207368764Y-94217133D01*
X207313393Y-94231892D01*
X207236107Y-94249352D01*
X207144230Y-94267780D01*
X207112158Y-94273741D01*
X206957524Y-94302066D01*
X206835375Y-94324876D01*
X206741673Y-94343080D01*
X206672384Y-94357583D01*
X206623471Y-94369292D01*
X206590897Y-94379115D01*
X206570628Y-94387956D01*
X206558626Y-94396724D01*
X206556947Y-94398457D01*
X206540184Y-94426371D01*
X206514614Y-94480695D01*
X206482788Y-94554777D01*
X206447260Y-94641965D01*
X206410583Y-94735608D01*
X206375311Y-94829052D01*
X206343996Y-94915647D01*
X206319193Y-94988740D01*
X206303454Y-95041678D01*
X206299332Y-95067811D01*
X206299676Y-95068726D01*
X206313641Y-95090086D01*
X206345322Y-95137084D01*
X206391391Y-95204827D01*
X206448518Y-95288423D01*
X206513373Y-95382982D01*
X206531843Y-95409854D01*
X206597699Y-95507275D01*
X206655650Y-95596163D01*
X206702538Y-95671412D01*
X206735207Y-95727920D01*
X206750500Y-95760581D01*
X206751241Y-95764593D01*
X206738392Y-95785684D01*
X206702888Y-95827464D01*
X206649293Y-95885445D01*
X206582171Y-95955135D01*
X206506087Y-96032045D01*
X206425604Y-96111683D01*
X206345287Y-96189561D01*
X206269699Y-96261186D01*
X206203405Y-96322070D01*
X206150969Y-96367721D01*
X206116955Y-96393650D01*
X206107545Y-96397883D01*
X206085643Y-96387912D01*
X206040800Y-96361020D01*
X205980321Y-96321736D01*
X205933789Y-96290117D01*
X205849475Y-96232098D01*
X205749626Y-96163784D01*
X205649473Y-96095579D01*
X205595627Y-96059075D01*
X205413371Y-95935800D01*
X205260381Y-96018520D01*
X205190682Y-96054759D01*
X205131414Y-96082926D01*
X205091311Y-96098991D01*
X205081103Y-96101226D01*
X205068829Y-96084722D01*
X205044613Y-96038082D01*
X205010263Y-95965609D01*
X204967588Y-95871606D01*
X204918394Y-95760374D01*
X204864490Y-95636215D01*
X204807684Y-95503432D01*
X204749782Y-95366327D01*
X204692593Y-95229202D01*
X204637924Y-95096358D01*
X204587584Y-94972098D01*
X204543380Y-94860725D01*
X204507119Y-94766539D01*
X204480609Y-94693844D01*
X204465658Y-94646941D01*
X204463254Y-94630833D01*
X204482311Y-94610286D01*
X204524036Y-94576933D01*
X204579706Y-94537702D01*
X204584378Y-94534599D01*
X204728264Y-94419423D01*
X204844283Y-94285053D01*
X204931430Y-94135784D01*
X204988699Y-93975913D01*
X205015086Y-93809737D01*
X205009585Y-93641552D01*
X204971190Y-93475655D01*
X204898895Y-93316342D01*
X204877626Y-93281487D01*
X204766996Y-93140737D01*
X204636302Y-93027714D01*
X204490064Y-92943003D01*
X204332808Y-92887194D01*
X204169057Y-92860874D01*
X204003333Y-92864630D01*
X203840162Y-92899050D01*
X203684065Y-92964723D01*
X203539567Y-93062235D01*
X203494869Y-93101813D01*
X203381112Y-93225703D01*
X203298218Y-93356124D01*
X203241356Y-93502315D01*
X203209687Y-93647088D01*
X203201869Y-93809860D01*
X203227938Y-93973440D01*
X203285245Y-94132298D01*
X203371144Y-94280906D01*
X203482986Y-94413735D01*
X203618123Y-94525256D01*
X203635883Y-94537011D01*
X203692150Y-94575508D01*
X203734923Y-94608863D01*
X203755372Y-94630160D01*
X203755669Y-94630833D01*
X203751279Y-94653871D01*
X203733876Y-94706157D01*
X203705268Y-94783390D01*
X203667265Y-94881268D01*
X203621674Y-94995491D01*
X203570303Y-95121758D01*
X203514962Y-95255767D01*
X203457458Y-95393218D01*
X203399601Y-95529808D01*
X203343198Y-95661237D01*
X203290058Y-95783205D01*
X203241990Y-95891409D01*
X203200801Y-95981549D01*
X203168301Y-96049323D01*
X203146297Y-96090430D01*
X203137436Y-96101226D01*
X203110360Y-96092819D01*
X203059697Y-96070272D01*
X202994183Y-96037613D01*
X202958159Y-96018520D01*
X202805168Y-95935800D01*
X202622912Y-96059075D01*
X202529875Y-96122228D01*
X202428015Y-96191727D01*
X202332562Y-96257165D01*
X202284750Y-96290117D01*
X202217505Y-96335273D01*
X202160564Y-96371057D01*
X202121354Y-96392938D01*
X202108619Y-96397563D01*
X202090083Y-96385085D01*
X202049059Y-96350252D01*
X201989525Y-96296678D01*
X201915458Y-96227983D01*
X201830835Y-96147781D01*
X201777315Y-96096286D01*
X201683681Y-96004286D01*
X201602759Y-95921999D01*
X201537823Y-95852945D01*
X201492142Y-95800644D01*
X201468989Y-95768616D01*
X201466768Y-95762116D01*
X201477076Y-95737394D01*
X201505561Y-95687405D01*
X201549063Y-95617212D01*
X201604423Y-95531875D01*
X201668480Y-95436456D01*
X201686697Y-95409854D01*
X201753073Y-95313167D01*
X201812622Y-95226117D01*
X201862016Y-95153595D01*
X201897925Y-95100493D01*
X201917019Y-95071703D01*
X201918864Y-95068726D01*
X201916105Y-95045782D01*
X201901462Y-94995336D01*
X201877487Y-94924041D01*
X201846734Y-94838547D01*
X201811756Y-94745507D01*
X201775107Y-94651574D01*
X201739339Y-94563399D01*
X201707006Y-94487634D01*
X201680662Y-94430931D01*
X201662858Y-94399943D01*
X201661593Y-94398457D01*
X201650706Y-94389601D01*
X201632318Y-94380843D01*
X201602394Y-94371277D01*
X201556897Y-94359996D01*
X201491791Y-94346093D01*
X201403039Y-94328663D01*
X201286607Y-94306798D01*
X201138458Y-94279591D01*
X201106382Y-94273741D01*
X201011314Y-94255374D01*
X200928435Y-94237405D01*
X200865070Y-94221569D01*
X200828542Y-94209600D01*
X200823644Y-94206810D01*
X200815573Y-94182072D01*
X200809013Y-94126790D01*
X200803967Y-94047389D01*
X200800441Y-93950296D01*
X200798439Y-93841938D01*
X200797964Y-93728740D01*
X200799023Y-93617128D01*
X200801618Y-93513529D01*
X200805754Y-93424368D01*
X200811437Y-93356072D01*
X200818669Y-93315066D01*
X200823029Y-93306674D01*
X200847302Y-93298208D01*
X200902574Y-93284435D01*
X200983338Y-93266550D01*
X201084088Y-93245748D01*
X201199317Y-93223223D01*
X201262098Y-93211418D01*
X201381213Y-93189151D01*
X201487435Y-93168979D01*
X201575573Y-93151915D01*
X201640434Y-93138969D01*
X201676826Y-93131155D01*
X201682816Y-93129422D01*
X201692939Y-93109890D01*
X201714338Y-93062843D01*
X201744161Y-92995003D01*
X201779555Y-92913091D01*
X201817668Y-92823828D01*
X201855647Y-92733935D01*
X201890640Y-92650135D01*
X201919794Y-92579147D01*
X201940257Y-92527694D01*
X201949177Y-92502497D01*
X201949343Y-92501396D01*
X201939231Y-92481519D01*
X201910883Y-92435777D01*
X201867277Y-92368717D01*
X201811394Y-92284884D01*
X201746213Y-92188826D01*
X201708321Y-92133650D01*
X201639275Y-92032481D01*
X201577950Y-91940630D01*
X201527337Y-91862744D01*
X201490429Y-91803469D01*
X201470218Y-91767451D01*
X201467299Y-91759377D01*
X201479847Y-91740584D01*
X201514537Y-91700457D01*
X201566937Y-91643493D01*
X201632616Y-91574185D01*
X201707144Y-91497031D01*
X201786087Y-91416525D01*
X201865017Y-91337163D01*
X201939500Y-91263440D01*
X202005106Y-91199852D01*
X202057404Y-91150894D01*
X202091961Y-91121061D01*
X202103522Y-91113942D01*
X202122346Y-91123953D01*
X202167369Y-91152078D01*
X202234213Y-91195454D01*
X202318501Y-91251218D01*
X202415856Y-91316506D01*
X202489293Y-91366246D01*
X202860333Y-91618551D01*
X203478905Y-91363555D01*
X203562725Y-90918931D01*
X203646546Y-90474307D01*
X204571994Y-90474307D01*
X204655814Y-90918931D01*
G37*
X204655814Y-90918931D02*
X204739635Y-91363555D01*
X205048920Y-91491053D01*
X205358206Y-91618551D01*
X205729246Y-91366246D01*
X205833157Y-91295996D01*
X205927087Y-91233272D01*
X206006652Y-91180938D01*
X206067470Y-91141857D01*
X206105157Y-91118893D01*
X206115421Y-91113942D01*
X206133910Y-91126676D01*
X206173420Y-91161882D01*
X206229522Y-91215062D01*
X206297787Y-91281718D01*
X206373786Y-91357354D01*
X206453092Y-91437472D01*
X206531275Y-91517574D01*
X206603907Y-91593164D01*
X206666559Y-91659745D01*
X206714803Y-91712818D01*
X206744210Y-91747887D01*
X206751241Y-91759623D01*
X206741123Y-91781260D01*
X206712759Y-91828662D01*
X206669129Y-91897193D01*
X206613218Y-91982215D01*
X206548006Y-92079093D01*
X206510219Y-92134350D01*
X206441343Y-92235248D01*
X206380140Y-92326299D01*
X206329578Y-92402970D01*
X206292628Y-92460728D01*
X206272258Y-92495043D01*
X206269197Y-92502254D01*
X206276136Y-92522748D01*
X206295051Y-92570513D01*
X206323087Y-92638832D01*
X206357391Y-92720989D01*
X206395109Y-92810270D01*
X206433387Y-92899958D01*
X206469370Y-92983338D01*
X206500206Y-93053694D01*
X206523039Y-93104310D01*
X206535017Y-93128471D01*
X206535724Y-93129422D01*
X206554531Y-93134036D01*
X206604618Y-93144328D01*
X206680793Y-93159287D01*
X206777865Y-93177901D01*
X206890643Y-93199159D01*
X206956442Y-93211418D01*
X207076950Y-93234362D01*
X207185797Y-93256195D01*
X207277476Y-93275722D01*
X207346481Y-93291748D01*
X207387304Y-93303079D01*
X207395511Y-93306674D01*
X207403548Y-93331006D01*
X207410033Y-93385959D01*
X207414970Y-93465108D01*
X207418364Y-93562026D01*
X207420218Y-93670287D01*
X207420538Y-93783465D01*
X207419327Y-93895135D01*
X207416590Y-93998868D01*
X207412331Y-94088241D01*
X207406555Y-94156826D01*
X207399267Y-94198197D01*
X207394895Y-94206810D01*
X207368764Y-94217133D01*
X207313393Y-94231892D01*
X207236107Y-94249352D01*
X207144230Y-94267780D01*
X207112158Y-94273741D01*
X206957524Y-94302066D01*
X206835375Y-94324876D01*
X206741673Y-94343080D01*
X206672384Y-94357583D01*
X206623471Y-94369292D01*
X206590897Y-94379115D01*
X206570628Y-94387956D01*
X206558626Y-94396724D01*
X206556947Y-94398457D01*
X206540184Y-94426371D01*
X206514614Y-94480695D01*
X206482788Y-94554777D01*
X206447260Y-94641965D01*
X206410583Y-94735608D01*
X206375311Y-94829052D01*
X206343996Y-94915647D01*
X206319193Y-94988740D01*
X206303454Y-95041678D01*
X206299332Y-95067811D01*
X206299676Y-95068726D01*
X206313641Y-95090086D01*
X206345322Y-95137084D01*
X206391391Y-95204827D01*
X206448518Y-95288423D01*
X206513373Y-95382982D01*
X206531843Y-95409854D01*
X206597699Y-95507275D01*
X206655650Y-95596163D01*
X206702538Y-95671412D01*
X206735207Y-95727920D01*
X206750500Y-95760581D01*
X206751241Y-95764593D01*
X206738392Y-95785684D01*
X206702888Y-95827464D01*
X206649293Y-95885445D01*
X206582171Y-95955135D01*
X206506087Y-96032045D01*
X206425604Y-96111683D01*
X206345287Y-96189561D01*
X206269699Y-96261186D01*
X206203405Y-96322070D01*
X206150969Y-96367721D01*
X206116955Y-96393650D01*
X206107545Y-96397883D01*
X206085643Y-96387912D01*
X206040800Y-96361020D01*
X205980321Y-96321736D01*
X205933789Y-96290117D01*
X205849475Y-96232098D01*
X205749626Y-96163784D01*
X205649473Y-96095579D01*
X205595627Y-96059075D01*
X205413371Y-95935800D01*
X205260381Y-96018520D01*
X205190682Y-96054759D01*
X205131414Y-96082926D01*
X205091311Y-96098991D01*
X205081103Y-96101226D01*
X205068829Y-96084722D01*
X205044613Y-96038082D01*
X205010263Y-95965609D01*
X204967588Y-95871606D01*
X204918394Y-95760374D01*
X204864490Y-95636215D01*
X204807684Y-95503432D01*
X204749782Y-95366327D01*
X204692593Y-95229202D01*
X204637924Y-95096358D01*
X204587584Y-94972098D01*
X204543380Y-94860725D01*
X204507119Y-94766539D01*
X204480609Y-94693844D01*
X204465658Y-94646941D01*
X204463254Y-94630833D01*
X204482311Y-94610286D01*
X204524036Y-94576933D01*
X204579706Y-94537702D01*
X204584378Y-94534599D01*
X204728264Y-94419423D01*
X204844283Y-94285053D01*
X204931430Y-94135784D01*
X204988699Y-93975913D01*
X205015086Y-93809737D01*
X205009585Y-93641552D01*
X204971190Y-93475655D01*
X204898895Y-93316342D01*
X204877626Y-93281487D01*
X204766996Y-93140737D01*
X204636302Y-93027714D01*
X204490064Y-92943003D01*
X204332808Y-92887194D01*
X204169057Y-92860874D01*
X204003333Y-92864630D01*
X203840162Y-92899050D01*
X203684065Y-92964723D01*
X203539567Y-93062235D01*
X203494869Y-93101813D01*
X203381112Y-93225703D01*
X203298218Y-93356124D01*
X203241356Y-93502315D01*
X203209687Y-93647088D01*
X203201869Y-93809860D01*
X203227938Y-93973440D01*
X203285245Y-94132298D01*
X203371144Y-94280906D01*
X203482986Y-94413735D01*
X203618123Y-94525256D01*
X203635883Y-94537011D01*
X203692150Y-94575508D01*
X203734923Y-94608863D01*
X203755372Y-94630160D01*
X203755669Y-94630833D01*
X203751279Y-94653871D01*
X203733876Y-94706157D01*
X203705268Y-94783390D01*
X203667265Y-94881268D01*
X203621674Y-94995491D01*
X203570303Y-95121758D01*
X203514962Y-95255767D01*
X203457458Y-95393218D01*
X203399601Y-95529808D01*
X203343198Y-95661237D01*
X203290058Y-95783205D01*
X203241990Y-95891409D01*
X203200801Y-95981549D01*
X203168301Y-96049323D01*
X203146297Y-96090430D01*
X203137436Y-96101226D01*
X203110360Y-96092819D01*
X203059697Y-96070272D01*
X202994183Y-96037613D01*
X202958159Y-96018520D01*
X202805168Y-95935800D01*
X202622912Y-96059075D01*
X202529875Y-96122228D01*
X202428015Y-96191727D01*
X202332562Y-96257165D01*
X202284750Y-96290117D01*
X202217505Y-96335273D01*
X202160564Y-96371057D01*
X202121354Y-96392938D01*
X202108619Y-96397563D01*
X202090083Y-96385085D01*
X202049059Y-96350252D01*
X201989525Y-96296678D01*
X201915458Y-96227983D01*
X201830835Y-96147781D01*
X201777315Y-96096286D01*
X201683681Y-96004286D01*
X201602759Y-95921999D01*
X201537823Y-95852945D01*
X201492142Y-95800644D01*
X201468989Y-95768616D01*
X201466768Y-95762116D01*
X201477076Y-95737394D01*
X201505561Y-95687405D01*
X201549063Y-95617212D01*
X201604423Y-95531875D01*
X201668480Y-95436456D01*
X201686697Y-95409854D01*
X201753073Y-95313167D01*
X201812622Y-95226117D01*
X201862016Y-95153595D01*
X201897925Y-95100493D01*
X201917019Y-95071703D01*
X201918864Y-95068726D01*
X201916105Y-95045782D01*
X201901462Y-94995336D01*
X201877487Y-94924041D01*
X201846734Y-94838547D01*
X201811756Y-94745507D01*
X201775107Y-94651574D01*
X201739339Y-94563399D01*
X201707006Y-94487634D01*
X201680662Y-94430931D01*
X201662858Y-94399943D01*
X201661593Y-94398457D01*
X201650706Y-94389601D01*
X201632318Y-94380843D01*
X201602394Y-94371277D01*
X201556897Y-94359996D01*
X201491791Y-94346093D01*
X201403039Y-94328663D01*
X201286607Y-94306798D01*
X201138458Y-94279591D01*
X201106382Y-94273741D01*
X201011314Y-94255374D01*
X200928435Y-94237405D01*
X200865070Y-94221569D01*
X200828542Y-94209600D01*
X200823644Y-94206810D01*
X200815573Y-94182072D01*
X200809013Y-94126790D01*
X200803967Y-94047389D01*
X200800441Y-93950296D01*
X200798439Y-93841938D01*
X200797964Y-93728740D01*
X200799023Y-93617128D01*
X200801618Y-93513529D01*
X200805754Y-93424368D01*
X200811437Y-93356072D01*
X200818669Y-93315066D01*
X200823029Y-93306674D01*
X200847302Y-93298208D01*
X200902574Y-93284435D01*
X200983338Y-93266550D01*
X201084088Y-93245748D01*
X201199317Y-93223223D01*
X201262098Y-93211418D01*
X201381213Y-93189151D01*
X201487435Y-93168979D01*
X201575573Y-93151915D01*
X201640434Y-93138969D01*
X201676826Y-93131155D01*
X201682816Y-93129422D01*
X201692939Y-93109890D01*
X201714338Y-93062843D01*
X201744161Y-92995003D01*
X201779555Y-92913091D01*
X201817668Y-92823828D01*
X201855647Y-92733935D01*
X201890640Y-92650135D01*
X201919794Y-92579147D01*
X201940257Y-92527694D01*
X201949177Y-92502497D01*
X201949343Y-92501396D01*
X201939231Y-92481519D01*
X201910883Y-92435777D01*
X201867277Y-92368717D01*
X201811394Y-92284884D01*
X201746213Y-92188826D01*
X201708321Y-92133650D01*
X201639275Y-92032481D01*
X201577950Y-91940630D01*
X201527337Y-91862744D01*
X201490429Y-91803469D01*
X201470218Y-91767451D01*
X201467299Y-91759377D01*
X201479847Y-91740584D01*
X201514537Y-91700457D01*
X201566937Y-91643493D01*
X201632616Y-91574185D01*
X201707144Y-91497031D01*
X201786087Y-91416525D01*
X201865017Y-91337163D01*
X201939500Y-91263440D01*
X202005106Y-91199852D01*
X202057404Y-91150894D01*
X202091961Y-91121061D01*
X202103522Y-91113942D01*
X202122346Y-91123953D01*
X202167369Y-91152078D01*
X202234213Y-91195454D01*
X202318501Y-91251218D01*
X202415856Y-91316506D01*
X202489293Y-91366246D01*
X202860333Y-91618551D01*
X203478905Y-91363555D01*
X203562725Y-90918931D01*
X203646546Y-90474307D01*
X204571994Y-90474307D01*
X204655814Y-90918931D01*
D12*
%TO.C,1N4148*%
X204876371Y-102780000D02*
G75*
G03*
X204876371Y-102780000I-1326371J0D01*
G01*
X203550000Y-101453629D02*
X203550000Y-98800000D01*
X228826371Y-105200000D02*
G75*
G03*
X228826371Y-105200000I-1326371J0D01*
G01*
X226173629Y-105200000D02*
X223520000Y-105200000D01*
X228826371Y-113680000D02*
G75*
G03*
X228826371Y-113680000I-1326371J0D01*
G01*
X227500000Y-112353629D02*
X227500000Y-109700000D01*
%TO.C,6.8 nF*%
X199080000Y-108980000D02*
X207320000Y-108980000D01*
X199080000Y-111720000D02*
X207320000Y-111720000D01*
X199080000Y-108980000D02*
X199080000Y-111720000D01*
X207320000Y-108980000D02*
X207320000Y-111720000D01*
%TO.C,555 Timer*%
X213460000Y-90270000D02*
G75*
G02*
X211460000Y-90270000I-1000000J0D01*
G01*
X211460000Y-90270000D02*
X209810000Y-90270000D01*
X209810000Y-90270000D02*
X209810000Y-100550000D01*
X209810000Y-100550000D02*
X215110000Y-100550000D01*
X215110000Y-100550000D02*
X215110000Y-90270000D01*
X215110000Y-90270000D02*
X213460000Y-90270000D01*
%TO.C,Potentiometer*%
X227560000Y-118760000D02*
X227560000Y-116640000D01*
X223500000Y-118760000D02*
X227560000Y-118760000D01*
X223500000Y-116640000D02*
X227560000Y-116640000D01*
X223500000Y-118760000D02*
X223500000Y-116640000D01*
X222500000Y-118760000D02*
X221440000Y-118760000D01*
X221440000Y-118760000D02*
X221440000Y-117700000D01*
%TO.C,1k*%
X215840000Y-107120000D02*
X215840000Y-104380000D01*
X215840000Y-104380000D02*
X209300000Y-104380000D01*
X209300000Y-104380000D02*
X209300000Y-107120000D01*
X209300000Y-107120000D02*
X215840000Y-107120000D01*
X216610000Y-105750000D02*
X215840000Y-105750000D01*
X208530000Y-105750000D02*
X209300000Y-105750000D01*
%TO.C,10k*%
X221030000Y-99590000D02*
X223770000Y-99590000D01*
X223770000Y-99590000D02*
X223770000Y-93050000D01*
X223770000Y-93050000D02*
X221030000Y-93050000D01*
X221030000Y-93050000D02*
X221030000Y-99590000D01*
X222400000Y-100360000D02*
X222400000Y-99590000D01*
X222400000Y-92280000D02*
X222400000Y-93050000D01*
%TO.C,TIP31c*%
X219530000Y-119620000D02*
X209290000Y-119620000D01*
X219530000Y-114979000D02*
X209290000Y-114979000D01*
X219530000Y-119620000D02*
X219530000Y-114979000D01*
X209290000Y-119620000D02*
X209290000Y-114979000D01*
X219530000Y-118110000D02*
X209290000Y-118110000D01*
X216260000Y-119620000D02*
X216260000Y-118110000D01*
X212559000Y-119620000D02*
X212559000Y-118110000D01*
%TO.C,Motor*%
X197740000Y-100760000D02*
X199860000Y-100760000D01*
X197740000Y-98700000D02*
X197740000Y-100760000D01*
X199860000Y-98700000D02*
X199860000Y-100760000D01*
X197740000Y-98700000D02*
X199860000Y-98700000D01*
X197740000Y-97700000D02*
X197740000Y-96640000D01*
X197740000Y-96640000D02*
X198800000Y-96640000D01*
%TO.C,J2*%
X202640000Y-117040000D02*
X202640000Y-119160000D01*
X204700000Y-117040000D02*
X202640000Y-117040000D01*
X204700000Y-119160000D02*
X202640000Y-119160000D01*
X204700000Y-117040000D02*
X204700000Y-119160000D01*
X205700000Y-117040000D02*
X206760000Y-117040000D01*
X206760000Y-117040000D02*
X206760000Y-118100000D01*
%TO.C,J1*%
X202640000Y-113640000D02*
X202640000Y-115760000D01*
X204700000Y-113640000D02*
X202640000Y-113640000D01*
X204700000Y-115760000D02*
X202640000Y-115760000D01*
X204700000Y-113640000D02*
X204700000Y-115760000D01*
X205700000Y-113640000D02*
X206760000Y-113640000D01*
X206760000Y-113640000D02*
X206760000Y-114700000D01*
%TO.C,0.1 uF*%
X221270000Y-111500000D02*
G75*
G03*
X221270000Y-111500000I-2120000J0D01*
G01*
X221230000Y-111500000D02*
X217070000Y-111500000D01*
X221230000Y-111540000D02*
X217070000Y-111540000D01*
X221229000Y-111580000D02*
X217071000Y-111580000D01*
X221227000Y-111620000D02*
X217073000Y-111620000D01*
X221224000Y-111660000D02*
X217076000Y-111660000D01*
X221221000Y-111700000D02*
X219990000Y-111700000D01*
X218310000Y-111700000D02*
X217079000Y-111700000D01*
X221217000Y-111740000D02*
X219990000Y-111740000D01*
X218310000Y-111740000D02*
X217083000Y-111740000D01*
X221212000Y-111780000D02*
X219990000Y-111780000D01*
X218310000Y-111780000D02*
X217088000Y-111780000D01*
X221206000Y-111820000D02*
X219990000Y-111820000D01*
X218310000Y-111820000D02*
X217094000Y-111820000D01*
X221200000Y-111860000D02*
X219990000Y-111860000D01*
X218310000Y-111860000D02*
X217100000Y-111860000D01*
X221192000Y-111900000D02*
X219990000Y-111900000D01*
X218310000Y-111900000D02*
X217108000Y-111900000D01*
X221184000Y-111940000D02*
X219990000Y-111940000D01*
X218310000Y-111940000D02*
X217116000Y-111940000D01*
X221175000Y-111980000D02*
X219990000Y-111980000D01*
X218310000Y-111980000D02*
X217125000Y-111980000D01*
X221166000Y-112020000D02*
X219990000Y-112020000D01*
X218310000Y-112020000D02*
X217134000Y-112020000D01*
X221155000Y-112060000D02*
X219990000Y-112060000D01*
X218310000Y-112060000D02*
X217145000Y-112060000D01*
X221144000Y-112100000D02*
X219990000Y-112100000D01*
X218310000Y-112100000D02*
X217156000Y-112100000D01*
X221132000Y-112140000D02*
X219990000Y-112140000D01*
X218310000Y-112140000D02*
X217168000Y-112140000D01*
X221118000Y-112180000D02*
X219990000Y-112180000D01*
X218310000Y-112180000D02*
X217182000Y-112180000D01*
X221104000Y-112221000D02*
X219990000Y-112221000D01*
X218310000Y-112221000D02*
X217196000Y-112221000D01*
X221090000Y-112261000D02*
X219990000Y-112261000D01*
X218310000Y-112261000D02*
X217210000Y-112261000D01*
X221074000Y-112301000D02*
X219990000Y-112301000D01*
X218310000Y-112301000D02*
X217226000Y-112301000D01*
X221057000Y-112341000D02*
X219990000Y-112341000D01*
X218310000Y-112341000D02*
X217243000Y-112341000D01*
X221039000Y-112381000D02*
X219990000Y-112381000D01*
X218310000Y-112381000D02*
X217261000Y-112381000D01*
X221020000Y-112421000D02*
X219990000Y-112421000D01*
X218310000Y-112421000D02*
X217280000Y-112421000D01*
X221001000Y-112461000D02*
X219990000Y-112461000D01*
X218310000Y-112461000D02*
X217299000Y-112461000D01*
X220980000Y-112501000D02*
X219990000Y-112501000D01*
X218310000Y-112501000D02*
X217320000Y-112501000D01*
X220958000Y-112541000D02*
X219990000Y-112541000D01*
X218310000Y-112541000D02*
X217342000Y-112541000D01*
X220935000Y-112581000D02*
X219990000Y-112581000D01*
X218310000Y-112581000D02*
X217365000Y-112581000D01*
X220910000Y-112621000D02*
X219990000Y-112621000D01*
X218310000Y-112621000D02*
X217390000Y-112621000D01*
X220885000Y-112661000D02*
X219990000Y-112661000D01*
X218310000Y-112661000D02*
X217415000Y-112661000D01*
X220858000Y-112701000D02*
X219990000Y-112701000D01*
X218310000Y-112701000D02*
X217442000Y-112701000D01*
X220830000Y-112741000D02*
X219990000Y-112741000D01*
X218310000Y-112741000D02*
X217470000Y-112741000D01*
X220800000Y-112781000D02*
X219990000Y-112781000D01*
X218310000Y-112781000D02*
X217500000Y-112781000D01*
X220769000Y-112821000D02*
X219990000Y-112821000D01*
X218310000Y-112821000D02*
X217531000Y-112821000D01*
X220737000Y-112861000D02*
X219990000Y-112861000D01*
X218310000Y-112861000D02*
X217563000Y-112861000D01*
X220702000Y-112901000D02*
X219990000Y-112901000D01*
X218310000Y-112901000D02*
X217598000Y-112901000D01*
X220666000Y-112941000D02*
X219990000Y-112941000D01*
X218310000Y-112941000D02*
X217634000Y-112941000D01*
X220628000Y-112981000D02*
X219990000Y-112981000D01*
X218310000Y-112981000D02*
X217672000Y-112981000D01*
X220588000Y-113021000D02*
X219990000Y-113021000D01*
X218310000Y-113021000D02*
X217712000Y-113021000D01*
X220546000Y-113061000D02*
X219990000Y-113061000D01*
X218310000Y-113061000D02*
X217754000Y-113061000D01*
X220501000Y-113101000D02*
X219990000Y-113101000D01*
X218310000Y-113101000D02*
X217799000Y-113101000D01*
X220454000Y-113141000D02*
X219990000Y-113141000D01*
X218310000Y-113141000D02*
X217846000Y-113141000D01*
X220404000Y-113181000D02*
X219990000Y-113181000D01*
X218310000Y-113181000D02*
X217896000Y-113181000D01*
X220350000Y-113221000D02*
X219990000Y-113221000D01*
X218310000Y-113221000D02*
X217950000Y-113221000D01*
X220292000Y-113261000D02*
X219990000Y-113261000D01*
X218310000Y-113261000D02*
X218008000Y-113261000D01*
X220230000Y-113301000D02*
X219990000Y-113301000D01*
X218310000Y-113301000D02*
X218070000Y-113301000D01*
X220163000Y-113341000D02*
X218137000Y-113341000D01*
X220090000Y-113381000D02*
X218210000Y-113381000D01*
X220009000Y-113421000D02*
X218291000Y-113421000D01*
X219918000Y-113461000D02*
X218382000Y-113461000D01*
X219814000Y-113501000D02*
X218486000Y-113501000D01*
X219687000Y-113541000D02*
X218613000Y-113541000D01*
X219520000Y-113581000D02*
X218780000Y-113581000D01*
X220345000Y-109230199D02*
X220345000Y-109630199D01*
X220545000Y-109430199D02*
X220145000Y-109430199D01*
X214470000Y-111500000D02*
G75*
G03*
X214470000Y-111500000I-2120000J0D01*
G01*
X214430000Y-111500000D02*
X210270000Y-111500000D01*
X214430000Y-111540000D02*
X210270000Y-111540000D01*
X214429000Y-111580000D02*
X210271000Y-111580000D01*
X214427000Y-111620000D02*
X210273000Y-111620000D01*
X214424000Y-111660000D02*
X210276000Y-111660000D01*
X214421000Y-111700000D02*
X213190000Y-111700000D01*
X211510000Y-111700000D02*
X210279000Y-111700000D01*
X214417000Y-111740000D02*
X213190000Y-111740000D01*
X211510000Y-111740000D02*
X210283000Y-111740000D01*
X214412000Y-111780000D02*
X213190000Y-111780000D01*
X211510000Y-111780000D02*
X210288000Y-111780000D01*
X214406000Y-111820000D02*
X213190000Y-111820000D01*
X211510000Y-111820000D02*
X210294000Y-111820000D01*
X214400000Y-111860000D02*
X213190000Y-111860000D01*
X211510000Y-111860000D02*
X210300000Y-111860000D01*
X214392000Y-111900000D02*
X213190000Y-111900000D01*
X211510000Y-111900000D02*
X210308000Y-111900000D01*
X214384000Y-111940000D02*
X213190000Y-111940000D01*
X211510000Y-111940000D02*
X210316000Y-111940000D01*
X214375000Y-111980000D02*
X213190000Y-111980000D01*
X211510000Y-111980000D02*
X210325000Y-111980000D01*
X214366000Y-112020000D02*
X213190000Y-112020000D01*
X211510000Y-112020000D02*
X210334000Y-112020000D01*
X214355000Y-112060000D02*
X213190000Y-112060000D01*
X211510000Y-112060000D02*
X210345000Y-112060000D01*
X214344000Y-112100000D02*
X213190000Y-112100000D01*
X211510000Y-112100000D02*
X210356000Y-112100000D01*
X214332000Y-112140000D02*
X213190000Y-112140000D01*
X211510000Y-112140000D02*
X210368000Y-112140000D01*
X214318000Y-112180000D02*
X213190000Y-112180000D01*
X211510000Y-112180000D02*
X210382000Y-112180000D01*
X214304000Y-112221000D02*
X213190000Y-112221000D01*
X211510000Y-112221000D02*
X210396000Y-112221000D01*
X214290000Y-112261000D02*
X213190000Y-112261000D01*
X211510000Y-112261000D02*
X210410000Y-112261000D01*
X214274000Y-112301000D02*
X213190000Y-112301000D01*
X211510000Y-112301000D02*
X210426000Y-112301000D01*
X214257000Y-112341000D02*
X213190000Y-112341000D01*
X211510000Y-112341000D02*
X210443000Y-112341000D01*
X214239000Y-112381000D02*
X213190000Y-112381000D01*
X211510000Y-112381000D02*
X210461000Y-112381000D01*
X214220000Y-112421000D02*
X213190000Y-112421000D01*
X211510000Y-112421000D02*
X210480000Y-112421000D01*
X214201000Y-112461000D02*
X213190000Y-112461000D01*
X211510000Y-112461000D02*
X210499000Y-112461000D01*
X214180000Y-112501000D02*
X213190000Y-112501000D01*
X211510000Y-112501000D02*
X210520000Y-112501000D01*
X214158000Y-112541000D02*
X213190000Y-112541000D01*
X211510000Y-112541000D02*
X210542000Y-112541000D01*
X214135000Y-112581000D02*
X213190000Y-112581000D01*
X211510000Y-112581000D02*
X210565000Y-112581000D01*
X214110000Y-112621000D02*
X213190000Y-112621000D01*
X211510000Y-112621000D02*
X210590000Y-112621000D01*
X214085000Y-112661000D02*
X213190000Y-112661000D01*
X211510000Y-112661000D02*
X210615000Y-112661000D01*
X214058000Y-112701000D02*
X213190000Y-112701000D01*
X211510000Y-112701000D02*
X210642000Y-112701000D01*
X214030000Y-112741000D02*
X213190000Y-112741000D01*
X211510000Y-112741000D02*
X210670000Y-112741000D01*
X214000000Y-112781000D02*
X213190000Y-112781000D01*
X211510000Y-112781000D02*
X210700000Y-112781000D01*
X213969000Y-112821000D02*
X213190000Y-112821000D01*
X211510000Y-112821000D02*
X210731000Y-112821000D01*
X213937000Y-112861000D02*
X213190000Y-112861000D01*
X211510000Y-112861000D02*
X210763000Y-112861000D01*
X213902000Y-112901000D02*
X213190000Y-112901000D01*
X211510000Y-112901000D02*
X210798000Y-112901000D01*
X213866000Y-112941000D02*
X213190000Y-112941000D01*
X211510000Y-112941000D02*
X210834000Y-112941000D01*
X213828000Y-112981000D02*
X213190000Y-112981000D01*
X211510000Y-112981000D02*
X210872000Y-112981000D01*
X213788000Y-113021000D02*
X213190000Y-113021000D01*
X211510000Y-113021000D02*
X210912000Y-113021000D01*
X213746000Y-113061000D02*
X213190000Y-113061000D01*
X211510000Y-113061000D02*
X210954000Y-113061000D01*
X213701000Y-113101000D02*
X213190000Y-113101000D01*
X211510000Y-113101000D02*
X210999000Y-113101000D01*
X213654000Y-113141000D02*
X213190000Y-113141000D01*
X211510000Y-113141000D02*
X211046000Y-113141000D01*
X213604000Y-113181000D02*
X213190000Y-113181000D01*
X211510000Y-113181000D02*
X211096000Y-113181000D01*
X213550000Y-113221000D02*
X213190000Y-113221000D01*
X211510000Y-113221000D02*
X211150000Y-113221000D01*
X213492000Y-113261000D02*
X213190000Y-113261000D01*
X211510000Y-113261000D02*
X211208000Y-113261000D01*
X213430000Y-113301000D02*
X213190000Y-113301000D01*
X211510000Y-113301000D02*
X211270000Y-113301000D01*
X213363000Y-113341000D02*
X211337000Y-113341000D01*
X213290000Y-113381000D02*
X211410000Y-113381000D01*
X213209000Y-113421000D02*
X211491000Y-113421000D01*
X213118000Y-113461000D02*
X211582000Y-113461000D01*
X213014000Y-113501000D02*
X211686000Y-113501000D01*
X212887000Y-113541000D02*
X211813000Y-113541000D01*
X212720000Y-113581000D02*
X211980000Y-113581000D01*
X213545000Y-109230199D02*
X213545000Y-109630199D01*
X213745000Y-109430199D02*
X213345000Y-109430199D01*
%TO.C,1N4148*%
D10*
X201676009Y-102382857D02*
X201676009Y-102954285D01*
X201676009Y-102668571D02*
X200676009Y-102668571D01*
X200818867Y-102763809D01*
X200914105Y-102859047D01*
X200961724Y-102954285D01*
X201676009Y-101954285D02*
X200676009Y-101954285D01*
X201676009Y-101382857D01*
X200676009Y-101382857D01*
X201009343Y-100478095D02*
X201676009Y-100478095D01*
X200628390Y-100716190D02*
X201342676Y-100954285D01*
X201342676Y-100335238D01*
X201676009Y-99430476D02*
X201676009Y-100001904D01*
X201676009Y-99716190D02*
X200676009Y-99716190D01*
X200818867Y-99811428D01*
X200914105Y-99906666D01*
X200961724Y-100001904D01*
X201009343Y-98573333D02*
X201676009Y-98573333D01*
X200628390Y-98811428D02*
X201342676Y-99049523D01*
X201342676Y-98430476D01*
X201104581Y-97906666D02*
X201056962Y-98001904D01*
X201009343Y-98049523D01*
X200914105Y-98097142D01*
X200866486Y-98097142D01*
X200771248Y-98049523D01*
X200723629Y-98001904D01*
X200676009Y-97906666D01*
X200676009Y-97716190D01*
X200723629Y-97620952D01*
X200771248Y-97573333D01*
X200866486Y-97525714D01*
X200914105Y-97525714D01*
X201009343Y-97573333D01*
X201056962Y-97620952D01*
X201104581Y-97716190D01*
X201104581Y-97906666D01*
X201152200Y-98001904D01*
X201199819Y-98049523D01*
X201295057Y-98097142D01*
X201485533Y-98097142D01*
X201580771Y-98049523D01*
X201628390Y-98001904D01*
X201676009Y-97906666D01*
X201676009Y-97716190D01*
X201628390Y-97620952D01*
X201580771Y-97573333D01*
X201485533Y-97525714D01*
X201295057Y-97525714D01*
X201199819Y-97573333D01*
X201152200Y-97620952D01*
X201104581Y-97716190D01*
X204516666Y-99438095D02*
X204516666Y-98961904D01*
X204802380Y-99533333D02*
X203802380Y-99200000D01*
X204802380Y-98866666D01*
X225257142Y-103452380D02*
X224685714Y-103452380D01*
X224971428Y-103452380D02*
X224971428Y-102452380D01*
X224876190Y-102595238D01*
X224780952Y-102690476D01*
X224685714Y-102738095D01*
X225685714Y-103452380D02*
X225685714Y-102452380D01*
X226257142Y-103452380D01*
X226257142Y-102452380D01*
X227161904Y-102785714D02*
X227161904Y-103452380D01*
X226923809Y-102404761D02*
X226685714Y-103119047D01*
X227304761Y-103119047D01*
X228209523Y-103452380D02*
X227638095Y-103452380D01*
X227923809Y-103452380D02*
X227923809Y-102452380D01*
X227828571Y-102595238D01*
X227733333Y-102690476D01*
X227638095Y-102738095D01*
X229066666Y-102785714D02*
X229066666Y-103452380D01*
X228828571Y-102404761D02*
X228590476Y-103119047D01*
X229209523Y-103119047D01*
X229733333Y-102880952D02*
X229638095Y-102833333D01*
X229590476Y-102785714D01*
X229542857Y-102690476D01*
X229542857Y-102642857D01*
X229590476Y-102547619D01*
X229638095Y-102500000D01*
X229733333Y-102452380D01*
X229923809Y-102452380D01*
X230019047Y-102500000D01*
X230066666Y-102547619D01*
X230114285Y-102642857D01*
X230114285Y-102690476D01*
X230066666Y-102785714D01*
X230019047Y-102833333D01*
X229923809Y-102880952D01*
X229733333Y-102880952D01*
X229638095Y-102928571D01*
X229590476Y-102976190D01*
X229542857Y-103071428D01*
X229542857Y-103261904D01*
X229590476Y-103357142D01*
X229638095Y-103404761D01*
X229733333Y-103452380D01*
X229923809Y-103452380D01*
X230019047Y-103404761D01*
X230066666Y-103357142D01*
X230114285Y-103261904D01*
X230114285Y-103071428D01*
X230066666Y-102976190D01*
X230019047Y-102928571D01*
X229923809Y-102880952D01*
X223681904Y-104566666D02*
X224158095Y-104566666D01*
X223586666Y-104852380D02*
X223920000Y-103852380D01*
X224253333Y-104852380D01*
X225626009Y-113282857D02*
X225626009Y-113854285D01*
X225626009Y-113568571D02*
X224626009Y-113568571D01*
X224768867Y-113663809D01*
X224864105Y-113759047D01*
X224911724Y-113854285D01*
X225626009Y-112854285D02*
X224626009Y-112854285D01*
X225626009Y-112282857D01*
X224626009Y-112282857D01*
X224959343Y-111378095D02*
X225626009Y-111378095D01*
X224578390Y-111616190D02*
X225292676Y-111854285D01*
X225292676Y-111235238D01*
X225626009Y-110330476D02*
X225626009Y-110901904D01*
X225626009Y-110616190D02*
X224626009Y-110616190D01*
X224768867Y-110711428D01*
X224864105Y-110806666D01*
X224911724Y-110901904D01*
X224959343Y-109473333D02*
X225626009Y-109473333D01*
X224578390Y-109711428D02*
X225292676Y-109949523D01*
X225292676Y-109330476D01*
X225054581Y-108806666D02*
X225006962Y-108901904D01*
X224959343Y-108949523D01*
X224864105Y-108997142D01*
X224816486Y-108997142D01*
X224721248Y-108949523D01*
X224673629Y-108901904D01*
X224626009Y-108806666D01*
X224626009Y-108616190D01*
X224673629Y-108520952D01*
X224721248Y-108473333D01*
X224816486Y-108425714D01*
X224864105Y-108425714D01*
X224959343Y-108473333D01*
X225006962Y-108520952D01*
X225054581Y-108616190D01*
X225054581Y-108806666D01*
X225102200Y-108901904D01*
X225149819Y-108949523D01*
X225245057Y-108997142D01*
X225435533Y-108997142D01*
X225530771Y-108949523D01*
X225578390Y-108901904D01*
X225626009Y-108806666D01*
X225626009Y-108616190D01*
X225578390Y-108520952D01*
X225530771Y-108473333D01*
X225435533Y-108425714D01*
X225245057Y-108425714D01*
X225149819Y-108473333D01*
X225102200Y-108520952D01*
X225054581Y-108616190D01*
X228466666Y-110338095D02*
X228466666Y-109861904D01*
X228752380Y-110433333D02*
X227752380Y-110100000D01*
X228752380Y-109766666D01*
%TO.C,6.8 nF*%
X201414285Y-107302380D02*
X201223809Y-107302380D01*
X201128571Y-107350000D01*
X201080952Y-107397619D01*
X200985714Y-107540476D01*
X200938095Y-107730952D01*
X200938095Y-108111904D01*
X200985714Y-108207142D01*
X201033333Y-108254761D01*
X201128571Y-108302380D01*
X201319047Y-108302380D01*
X201414285Y-108254761D01*
X201461904Y-108207142D01*
X201509523Y-108111904D01*
X201509523Y-107873809D01*
X201461904Y-107778571D01*
X201414285Y-107730952D01*
X201319047Y-107683333D01*
X201128571Y-107683333D01*
X201033333Y-107730952D01*
X200985714Y-107778571D01*
X200938095Y-107873809D01*
X201938095Y-108207142D02*
X201985714Y-108254761D01*
X201938095Y-108302380D01*
X201890476Y-108254761D01*
X201938095Y-108207142D01*
X201938095Y-108302380D01*
X202557142Y-107730952D02*
X202461904Y-107683333D01*
X202414285Y-107635714D01*
X202366666Y-107540476D01*
X202366666Y-107492857D01*
X202414285Y-107397619D01*
X202461904Y-107350000D01*
X202557142Y-107302380D01*
X202747619Y-107302380D01*
X202842857Y-107350000D01*
X202890476Y-107397619D01*
X202938095Y-107492857D01*
X202938095Y-107540476D01*
X202890476Y-107635714D01*
X202842857Y-107683333D01*
X202747619Y-107730952D01*
X202557142Y-107730952D01*
X202461904Y-107778571D01*
X202414285Y-107826190D01*
X202366666Y-107921428D01*
X202366666Y-108111904D01*
X202414285Y-108207142D01*
X202461904Y-108254761D01*
X202557142Y-108302380D01*
X202747619Y-108302380D01*
X202842857Y-108254761D01*
X202890476Y-108207142D01*
X202938095Y-108111904D01*
X202938095Y-107921428D01*
X202890476Y-107826190D01*
X202842857Y-107778571D01*
X202747619Y-107730952D01*
X204128571Y-107635714D02*
X204128571Y-108302380D01*
X204128571Y-107730952D02*
X204176190Y-107683333D01*
X204271428Y-107635714D01*
X204414285Y-107635714D01*
X204509523Y-107683333D01*
X204557142Y-107778571D01*
X204557142Y-108302380D01*
X205366666Y-107778571D02*
X205033333Y-107778571D01*
X205033333Y-108302380D02*
X205033333Y-107302380D01*
X205509523Y-107302380D01*
%TO.C,555 Timer*%
X211912380Y-98519047D02*
X211912380Y-98995238D01*
X212388571Y-99042857D01*
X212340952Y-98995238D01*
X212293333Y-98900000D01*
X212293333Y-98661904D01*
X212340952Y-98566666D01*
X212388571Y-98519047D01*
X212483809Y-98471428D01*
X212721904Y-98471428D01*
X212817142Y-98519047D01*
X212864761Y-98566666D01*
X212912380Y-98661904D01*
X212912380Y-98900000D01*
X212864761Y-98995238D01*
X212817142Y-99042857D01*
X211912380Y-97566666D02*
X211912380Y-98042857D01*
X212388571Y-98090476D01*
X212340952Y-98042857D01*
X212293333Y-97947619D01*
X212293333Y-97709523D01*
X212340952Y-97614285D01*
X212388571Y-97566666D01*
X212483809Y-97519047D01*
X212721904Y-97519047D01*
X212817142Y-97566666D01*
X212864761Y-97614285D01*
X212912380Y-97709523D01*
X212912380Y-97947619D01*
X212864761Y-98042857D01*
X212817142Y-98090476D01*
X211912380Y-96614285D02*
X211912380Y-97090476D01*
X212388571Y-97138095D01*
X212340952Y-97090476D01*
X212293333Y-96995238D01*
X212293333Y-96757142D01*
X212340952Y-96661904D01*
X212388571Y-96614285D01*
X212483809Y-96566666D01*
X212721904Y-96566666D01*
X212817142Y-96614285D01*
X212864761Y-96661904D01*
X212912380Y-96757142D01*
X212912380Y-96995238D01*
X212864761Y-97090476D01*
X212817142Y-97138095D01*
X211912380Y-95519047D02*
X211912380Y-94947619D01*
X212912380Y-95233333D02*
X211912380Y-95233333D01*
X212912380Y-94614285D02*
X212245714Y-94614285D01*
X211912380Y-94614285D02*
X211960000Y-94661904D01*
X212007619Y-94614285D01*
X211960000Y-94566666D01*
X211912380Y-94614285D01*
X212007619Y-94614285D01*
X212912380Y-94138095D02*
X212245714Y-94138095D01*
X212340952Y-94138095D02*
X212293333Y-94090476D01*
X212245714Y-93995238D01*
X212245714Y-93852380D01*
X212293333Y-93757142D01*
X212388571Y-93709523D01*
X212912380Y-93709523D01*
X212388571Y-93709523D02*
X212293333Y-93661904D01*
X212245714Y-93566666D01*
X212245714Y-93423809D01*
X212293333Y-93328571D01*
X212388571Y-93280952D01*
X212912380Y-93280952D01*
X212864761Y-92423809D02*
X212912380Y-92519047D01*
X212912380Y-92709523D01*
X212864761Y-92804761D01*
X212769523Y-92852380D01*
X212388571Y-92852380D01*
X212293333Y-92804761D01*
X212245714Y-92709523D01*
X212245714Y-92519047D01*
X212293333Y-92423809D01*
X212388571Y-92376190D01*
X212483809Y-92376190D01*
X212579047Y-92852380D01*
X212912380Y-91947619D02*
X212245714Y-91947619D01*
X212436190Y-91947619D02*
X212340952Y-91900000D01*
X212293333Y-91852380D01*
X212245714Y-91757142D01*
X212245714Y-91661904D01*
%TO.C,Potentiometer*%
X220123809Y-120102380D02*
X220123809Y-119102380D01*
X220504761Y-119102380D01*
X220600000Y-119150000D01*
X220647619Y-119197619D01*
X220695238Y-119292857D01*
X220695238Y-119435714D01*
X220647619Y-119530952D01*
X220600000Y-119578571D01*
X220504761Y-119626190D01*
X220123809Y-119626190D01*
X221266666Y-120102380D02*
X221171428Y-120054761D01*
X221123809Y-120007142D01*
X221076190Y-119911904D01*
X221076190Y-119626190D01*
X221123809Y-119530952D01*
X221171428Y-119483333D01*
X221266666Y-119435714D01*
X221409523Y-119435714D01*
X221504761Y-119483333D01*
X221552380Y-119530952D01*
X221600000Y-119626190D01*
X221600000Y-119911904D01*
X221552380Y-120007142D01*
X221504761Y-120054761D01*
X221409523Y-120102380D01*
X221266666Y-120102380D01*
X221885714Y-119435714D02*
X222266666Y-119435714D01*
X222028571Y-119102380D02*
X222028571Y-119959523D01*
X222076190Y-120054761D01*
X222171428Y-120102380D01*
X222266666Y-120102380D01*
X222980952Y-120054761D02*
X222885714Y-120102380D01*
X222695238Y-120102380D01*
X222600000Y-120054761D01*
X222552380Y-119959523D01*
X222552380Y-119578571D01*
X222600000Y-119483333D01*
X222695238Y-119435714D01*
X222885714Y-119435714D01*
X222980952Y-119483333D01*
X223028571Y-119578571D01*
X223028571Y-119673809D01*
X222552380Y-119769047D01*
X223457142Y-119435714D02*
X223457142Y-120102380D01*
X223457142Y-119530952D02*
X223504761Y-119483333D01*
X223600000Y-119435714D01*
X223742857Y-119435714D01*
X223838095Y-119483333D01*
X223885714Y-119578571D01*
X223885714Y-120102380D01*
X224219047Y-119435714D02*
X224600000Y-119435714D01*
X224361904Y-119102380D02*
X224361904Y-119959523D01*
X224409523Y-120054761D01*
X224504761Y-120102380D01*
X224600000Y-120102380D01*
X224933333Y-120102380D02*
X224933333Y-119435714D01*
X224933333Y-119102380D02*
X224885714Y-119150000D01*
X224933333Y-119197619D01*
X224980952Y-119150000D01*
X224933333Y-119102380D01*
X224933333Y-119197619D01*
X225552380Y-120102380D02*
X225457142Y-120054761D01*
X225409523Y-120007142D01*
X225361904Y-119911904D01*
X225361904Y-119626190D01*
X225409523Y-119530952D01*
X225457142Y-119483333D01*
X225552380Y-119435714D01*
X225695238Y-119435714D01*
X225790476Y-119483333D01*
X225838095Y-119530952D01*
X225885714Y-119626190D01*
X225885714Y-119911904D01*
X225838095Y-120007142D01*
X225790476Y-120054761D01*
X225695238Y-120102380D01*
X225552380Y-120102380D01*
X226314285Y-120102380D02*
X226314285Y-119435714D01*
X226314285Y-119530952D02*
X226361904Y-119483333D01*
X226457142Y-119435714D01*
X226600000Y-119435714D01*
X226695238Y-119483333D01*
X226742857Y-119578571D01*
X226742857Y-120102380D01*
X226742857Y-119578571D02*
X226790476Y-119483333D01*
X226885714Y-119435714D01*
X227028571Y-119435714D01*
X227123809Y-119483333D01*
X227171428Y-119578571D01*
X227171428Y-120102380D01*
X228028571Y-120054761D02*
X227933333Y-120102380D01*
X227742857Y-120102380D01*
X227647619Y-120054761D01*
X227600000Y-119959523D01*
X227600000Y-119578571D01*
X227647619Y-119483333D01*
X227742857Y-119435714D01*
X227933333Y-119435714D01*
X228028571Y-119483333D01*
X228076190Y-119578571D01*
X228076190Y-119673809D01*
X227600000Y-119769047D01*
X228361904Y-119435714D02*
X228742857Y-119435714D01*
X228504761Y-119102380D02*
X228504761Y-119959523D01*
X228552380Y-120054761D01*
X228647619Y-120102380D01*
X228742857Y-120102380D01*
X229457142Y-120054761D02*
X229361904Y-120102380D01*
X229171428Y-120102380D01*
X229076190Y-120054761D01*
X229028571Y-119959523D01*
X229028571Y-119578571D01*
X229076190Y-119483333D01*
X229171428Y-119435714D01*
X229361904Y-119435714D01*
X229457142Y-119483333D01*
X229504761Y-119578571D01*
X229504761Y-119673809D01*
X229028571Y-119769047D01*
X229933333Y-120102380D02*
X229933333Y-119435714D01*
X229933333Y-119626190D02*
X229980952Y-119530952D01*
X230028571Y-119483333D01*
X230123809Y-119435714D01*
X230219047Y-119435714D01*
%TO.C,1k*%
X212280952Y-103852380D02*
X211709523Y-103852380D01*
X211995238Y-103852380D02*
X211995238Y-102852380D01*
X211900000Y-102995238D01*
X211804761Y-103090476D01*
X211709523Y-103138095D01*
X212709523Y-103852380D02*
X212709523Y-102852380D01*
X212804761Y-103471428D02*
X213090476Y-103852380D01*
X213090476Y-103185714D02*
X212709523Y-103566666D01*
%TO.C,10k*%
X220482380Y-96915238D02*
X220482380Y-97486666D01*
X220482380Y-97200952D02*
X219482380Y-97200952D01*
X219625238Y-97296190D01*
X219720476Y-97391428D01*
X219768095Y-97486666D01*
X219482380Y-96296190D02*
X219482380Y-96200952D01*
X219530000Y-96105714D01*
X219577619Y-96058095D01*
X219672857Y-96010476D01*
X219863333Y-95962857D01*
X220101428Y-95962857D01*
X220291904Y-96010476D01*
X220387142Y-96058095D01*
X220434761Y-96105714D01*
X220482380Y-96200952D01*
X220482380Y-96296190D01*
X220434761Y-96391428D01*
X220387142Y-96439047D01*
X220291904Y-96486666D01*
X220101428Y-96534285D01*
X219863333Y-96534285D01*
X219672857Y-96486666D01*
X219577619Y-96439047D01*
X219530000Y-96391428D01*
X219482380Y-96296190D01*
X220482380Y-95534285D02*
X219482380Y-95534285D01*
X220101428Y-95439047D02*
X220482380Y-95153333D01*
X219815714Y-95153333D02*
X220196666Y-95534285D01*
%TO.C,TIP31c*%
X211895238Y-118352380D02*
X212466666Y-118352380D01*
X212180952Y-119352380D02*
X212180952Y-118352380D01*
X212800000Y-119352380D02*
X212800000Y-118352380D01*
X213276190Y-119352380D02*
X213276190Y-118352380D01*
X213657142Y-118352380D01*
X213752380Y-118400000D01*
X213800000Y-118447619D01*
X213847619Y-118542857D01*
X213847619Y-118685714D01*
X213800000Y-118780952D01*
X213752380Y-118828571D01*
X213657142Y-118876190D01*
X213276190Y-118876190D01*
X214180952Y-118352380D02*
X214800000Y-118352380D01*
X214466666Y-118733333D01*
X214609523Y-118733333D01*
X214704761Y-118780952D01*
X214752380Y-118828571D01*
X214800000Y-118923809D01*
X214800000Y-119161904D01*
X214752380Y-119257142D01*
X214704761Y-119304761D01*
X214609523Y-119352380D01*
X214323809Y-119352380D01*
X214228571Y-119304761D01*
X214180952Y-119257142D01*
X215752380Y-119352380D02*
X215180952Y-119352380D01*
X215466666Y-119352380D02*
X215466666Y-118352380D01*
X215371428Y-118495238D01*
X215276190Y-118590476D01*
X215180952Y-118638095D01*
X216609523Y-119304761D02*
X216514285Y-119352380D01*
X216323809Y-119352380D01*
X216228571Y-119304761D01*
X216180952Y-119257142D01*
X216133333Y-119161904D01*
X216133333Y-118876190D01*
X216180952Y-118780952D01*
X216228571Y-118733333D01*
X216323809Y-118685714D01*
X216514285Y-118685714D01*
X216609523Y-118733333D01*
%TO.C,Motor*%
X196966666Y-96092380D02*
X196966666Y-95092380D01*
X197300000Y-95806666D01*
X197633333Y-95092380D01*
X197633333Y-96092380D01*
X198252380Y-96092380D02*
X198157142Y-96044761D01*
X198109523Y-95997142D01*
X198061904Y-95901904D01*
X198061904Y-95616190D01*
X198109523Y-95520952D01*
X198157142Y-95473333D01*
X198252380Y-95425714D01*
X198395238Y-95425714D01*
X198490476Y-95473333D01*
X198538095Y-95520952D01*
X198585714Y-95616190D01*
X198585714Y-95901904D01*
X198538095Y-95997142D01*
X198490476Y-96044761D01*
X198395238Y-96092380D01*
X198252380Y-96092380D01*
X198871428Y-95425714D02*
X199252380Y-95425714D01*
X199014285Y-95092380D02*
X199014285Y-95949523D01*
X199061904Y-96044761D01*
X199157142Y-96092380D01*
X199252380Y-96092380D01*
X199728571Y-96092380D02*
X199633333Y-96044761D01*
X199585714Y-95997142D01*
X199538095Y-95901904D01*
X199538095Y-95616190D01*
X199585714Y-95520952D01*
X199633333Y-95473333D01*
X199728571Y-95425714D01*
X199871428Y-95425714D01*
X199966666Y-95473333D01*
X200014285Y-95520952D01*
X200061904Y-95616190D01*
X200061904Y-95901904D01*
X200014285Y-95997142D01*
X199966666Y-96044761D01*
X199871428Y-96092380D01*
X199728571Y-96092380D01*
X200490476Y-96092380D02*
X200490476Y-95425714D01*
X200490476Y-95616190D02*
X200538095Y-95520952D01*
X200585714Y-95473333D01*
X200680952Y-95425714D01*
X200776190Y-95425714D01*
%TO.C,0.1 uF*%
X221852380Y-113523809D02*
X221852380Y-113428571D01*
X221900000Y-113333333D01*
X221947619Y-113285714D01*
X222042857Y-113238095D01*
X222233333Y-113190476D01*
X222471428Y-113190476D01*
X222661904Y-113238095D01*
X222757142Y-113285714D01*
X222804761Y-113333333D01*
X222852380Y-113428571D01*
X222852380Y-113523809D01*
X222804761Y-113619047D01*
X222757142Y-113666666D01*
X222661904Y-113714285D01*
X222471428Y-113761904D01*
X222233333Y-113761904D01*
X222042857Y-113714285D01*
X221947619Y-113666666D01*
X221900000Y-113619047D01*
X221852380Y-113523809D01*
X222757142Y-112761904D02*
X222804761Y-112714285D01*
X222852380Y-112761904D01*
X222804761Y-112809523D01*
X222757142Y-112761904D01*
X222852380Y-112761904D01*
X222852380Y-111761904D02*
X222852380Y-112333333D01*
X222852380Y-112047619D02*
X221852380Y-112047619D01*
X221995238Y-112142857D01*
X222090476Y-112238095D01*
X222138095Y-112333333D01*
X222185714Y-110142857D02*
X222852380Y-110142857D01*
X222185714Y-110571428D02*
X222709523Y-110571428D01*
X222804761Y-110523809D01*
X222852380Y-110428571D01*
X222852380Y-110285714D01*
X222804761Y-110190476D01*
X222757142Y-110142857D01*
X222328571Y-109333333D02*
X222328571Y-109666666D01*
X222852380Y-109666666D02*
X221852380Y-109666666D01*
X221852380Y-109190476D01*
X215052380Y-113523809D02*
X215052380Y-113428571D01*
X215100000Y-113333333D01*
X215147619Y-113285714D01*
X215242857Y-113238095D01*
X215433333Y-113190476D01*
X215671428Y-113190476D01*
X215861904Y-113238095D01*
X215957142Y-113285714D01*
X216004761Y-113333333D01*
X216052380Y-113428571D01*
X216052380Y-113523809D01*
X216004761Y-113619047D01*
X215957142Y-113666666D01*
X215861904Y-113714285D01*
X215671428Y-113761904D01*
X215433333Y-113761904D01*
X215242857Y-113714285D01*
X215147619Y-113666666D01*
X215100000Y-113619047D01*
X215052380Y-113523809D01*
X215957142Y-112761904D02*
X216004761Y-112714285D01*
X216052380Y-112761904D01*
X216004761Y-112809523D01*
X215957142Y-112761904D01*
X216052380Y-112761904D01*
X216052380Y-111761904D02*
X216052380Y-112333333D01*
X216052380Y-112047619D02*
X215052380Y-112047619D01*
X215195238Y-112142857D01*
X215290476Y-112238095D01*
X215338095Y-112333333D01*
X215385714Y-110142857D02*
X216052380Y-110142857D01*
X215385714Y-110571428D02*
X215909523Y-110571428D01*
X216004761Y-110523809D01*
X216052380Y-110428571D01*
X216052380Y-110285714D01*
X216004761Y-110190476D01*
X215957142Y-110142857D01*
X215528571Y-109333333D02*
X215528571Y-109666666D01*
X216052380Y-109666666D02*
X215052380Y-109666666D01*
X215052380Y-109190476D01*
%TO.C,M2*%
X196190476Y-121452380D02*
X196190476Y-120452380D01*
X196523809Y-121166666D01*
X196857142Y-120452380D01*
X196857142Y-121452380D01*
X197285714Y-120547619D02*
X197333333Y-120500000D01*
X197428571Y-120452380D01*
X197666666Y-120452380D01*
X197761904Y-120500000D01*
X197809523Y-120547619D01*
X197857142Y-120642857D01*
X197857142Y-120738095D01*
X197809523Y-120880952D01*
X197238095Y-121452380D01*
X197857142Y-121452380D01*
X229190476Y-90452380D02*
X229190476Y-89452380D01*
X229523809Y-90166666D01*
X229857142Y-89452380D01*
X229857142Y-90452380D01*
X230285714Y-89547619D02*
X230333333Y-89500000D01*
X230428571Y-89452380D01*
X230666666Y-89452380D01*
X230761904Y-89500000D01*
X230809523Y-89547619D01*
X230857142Y-89642857D01*
X230857142Y-89738095D01*
X230809523Y-89880952D01*
X230238095Y-90452380D01*
X230857142Y-90452380D01*
X196190476Y-90452380D02*
X196190476Y-89452380D01*
X196523809Y-90166666D01*
X196857142Y-89452380D01*
X196857142Y-90452380D01*
X197285714Y-89547619D02*
X197333333Y-89500000D01*
X197428571Y-89452380D01*
X197666666Y-89452380D01*
X197761904Y-89500000D01*
X197809523Y-89547619D01*
X197857142Y-89642857D01*
X197857142Y-89738095D01*
X197809523Y-89880952D01*
X197238095Y-90452380D01*
X197857142Y-90452380D01*
%TO.C,*%
%TD*%
M02*
